<svg width="25" height="24" viewBox="0 0 25 24" fill="none" xmlns="http://www.w3.org/2000/svg">
<g clip-path="url(#clip0_63_1109)">
<path d="M10.2811 10.9237H0.64257C0.47215 10.9237 0.30871 10.856 0.188204 10.7355C0.0676992 10.615 0 10.4515 0 10.2811V0.64257C0 0.47215 0.0676992 0.30871 0.188204 0.188204C0.30871 0.0676992 0.47215 0 0.64257 0L10.2811 0C10.4515 0 10.615 0.0676992 10.7355 0.188204C10.856 0.30871 10.9237 0.47215 10.9237 0.64257V10.2811C10.9237 10.4515 10.856 10.615 10.7355 10.7355C10.615 10.856 10.4515 10.9237 10.2811 10.9237ZM1.28514 9.63855H9.63855V1.28514H1.28514V9.63855Z" fill="#0065FF"/>
<path d="M10.2811 24H0.64257C0.47215 24 0.30871 23.9323 0.188204 23.8118C0.0676992 23.6913 0 23.5279 0 23.3574V13.7189C0 13.5485 0.0676992 13.385 0.188204 13.2645C0.30871 13.144 0.47215 13.0763 0.64257 13.0763H10.2811C10.4515 13.0763 10.615 13.144 10.7355 13.2645C10.856 13.385 10.9237 13.5485 10.9237 13.7189V23.3574C10.9237 23.5279 10.856 23.6913 10.7355 23.8118C10.615 23.9323 10.4515 24 10.2811 24ZM1.28514 22.7149H9.63855V14.3615H1.28514V22.7149Z" fill="#0065FF"/>
<path d="M23.3961 10.9237H13.7576C13.5871 10.9237 13.4237 10.856 13.3032 10.7355C13.1827 10.615 13.115 10.4515 13.115 10.2811V0.64257C13.115 0.47215 13.1827 0.30871 13.3032 0.188204C13.4237 0.0676992 13.5871 0 13.7576 0L23.3961 0C23.5665 0 23.73 0.0676992 23.8505 0.188204C23.971 0.30871 24.0387 0.47215 24.0387 0.64257V10.2811C24.0387 10.4515 23.971 10.615 23.8505 10.7355C23.73 10.856 23.5665 10.9237 23.3961 10.9237ZM14.4001 9.63855H22.7535V1.28514H14.4001V9.63855Z" fill="#0065FF"/>
<g opacity="0.4">
<path opacity="0.7" d="M23.3959 23.3574L13.7573 23.5502C13.7073 23.5502 13.6592 23.5308 13.6233 23.496C13.5873 23.4613 13.5662 23.4139 13.5646 23.3639L13.3718 13.7253C13.3701 13.6753 13.3784 13.6254 13.3964 13.5787C13.4144 13.532 13.4415 13.4894 13.4763 13.4534C13.5111 13.4174 13.5528 13.3888 13.5988 13.3693C13.6449 13.3498 13.6945 13.3397 13.7445 13.3398L23.383 13.1406C23.4587 13.1389 23.5339 13.1522 23.6044 13.1797C23.6748 13.2073 23.7391 13.2486 23.7935 13.3012C23.8479 13.3538 23.8913 13.4166 23.9212 13.4861C23.9511 13.5556 23.967 13.6304 23.9678 13.706L24.0256 16.604C24.0256 16.7744 23.9579 16.9379 23.8374 17.0584C23.7169 17.1789 23.5535 17.2466 23.383 17.2466C23.2126 17.2466 23.0492 17.1789 22.9287 17.0584C22.8082 16.9379 22.7405 16.7744 22.7405 16.604L22.7983 13.706L23.383 14.2908L13.7445 14.098L14.1365 13.706L13.9373 23.3446L13.7445 23.1518L23.3959 23.3574Z" fill="#0065FF"/>
</g>
</g>
<defs>
<clipPath id="clip0_63_1109">
<rect width="24.0386" height="24" fill="white"/>
</clipPath>
</defs>
</svg>
