<svg width="36" height="32" viewBox="0 0 36 32" fill="none" xmlns="http://www.w3.org/2000/svg">
<g clip-path="url(#clip0_41_922)">
<g opacity="0.4">
<path opacity="0.7" d="M15.8135 4.04549C16.512 3.66138 17.2807 3.42186 18.0737 3.34122C18.9141 3.27192 19.7597 3.3757 20.5583 3.64614C21.357 3.91658 22.0917 4.34794 22.717 4.91356C22.1438 4.22441 21.4351 3.66024 20.635 3.25597C19.835 2.8517 18.9604 2.61592 18.0655 2.56324C17.1282 2.5141 16.1903 2.65047 15.3058 2.96451C14.8623 3.13371 14.4348 3.34199 14.0282 3.5869L12.9063 4.24204L13.4304 0.966331C13.4514 0.854993 13.4491 0.740511 13.4235 0.630123C13.398 0.519736 13.3499 0.415845 13.2821 0.325021C13.2144 0.234198 13.1286 0.158417 13.03 0.102471C12.9315 0.0465251 12.8225 0.0116318 12.7098 -2.30782e-06C12.4959 -0.0330229 12.2777 0.0199298 12.1028 0.147288C11.9278 0.274646 11.8104 0.466057 11.7762 0.679707L10.9081 6.11738C10.8883 6.2344 10.8941 6.35432 10.9252 6.46886C10.9563 6.5834 11.012 6.6898 11.0883 6.78071C11.1652 6.8706 11.2606 6.94277 11.3681 6.99224C11.4755 7.04172 11.5924 7.06734 11.7107 7.06733H17.2876C17.5047 7.06733 17.713 6.98105 17.8666 6.82747C18.0202 6.6739 18.1065 6.4656 18.1065 6.24841C18.1065 6.03121 18.0202 5.82292 17.8666 5.66934C17.713 5.51576 17.5047 5.42948 17.2876 5.42948H14.0119L14.8799 4.71701C15.172 4.46778 15.4843 4.24317 15.8135 4.04549Z" fill="#0065FF"/>
</g>
<g opacity="0.4">
<path opacity="0.7" d="M17.8035 27.8435C17.1026 28.2289 16.3309 28.4684 15.535 28.5478C14.6982 28.6222 13.855 28.5255 13.0567 28.2637C12.2585 28.0018 11.5218 27.5802 10.8917 27.0246C11.4706 27.7101 12.183 28.2706 12.9855 28.6718C13.788 29.0731 14.6639 29.3067 15.5596 29.3585C16.4943 29.4083 17.4296 29.2719 18.3112 28.9572C18.7573 28.788 19.1875 28.5798 19.5969 28.3348L20.7188 27.6797H20.7598L20.2357 30.9554C20.2001 31.1693 20.2509 31.3886 20.3767 31.5651C20.5026 31.7417 20.6934 31.8611 20.9072 31.8972C21.0137 31.9147 21.1226 31.911 21.2277 31.8863C21.3327 31.8616 21.4319 31.8163 21.5194 31.7532C21.6069 31.69 21.6811 31.6101 21.7377 31.5182C21.7942 31.4263 21.832 31.3241 21.849 31.2175L22.717 25.788C22.7368 25.671 22.731 25.551 22.6999 25.4365C22.6688 25.322 22.6132 25.2156 22.5369 25.1247C22.4591 25.0337 22.3623 24.9609 22.2534 24.9114C22.1444 24.8619 22.0259 24.8368 21.9063 24.838H16.3376C16.1204 24.838 15.9121 24.9243 15.7585 25.0779C15.6049 25.2315 15.5187 25.4398 15.5187 25.657C15.5187 25.8741 15.6049 26.0824 15.7585 26.236C15.9121 26.3896 16.1204 26.4759 16.3376 26.4759H19.6133L18.7452 27.1883C18.4499 27.4323 18.1349 27.6514 17.8035 27.8435Z" fill="#0065FF"/>
</g>
<path d="M17.5987 13.8399C17.7958 13.0532 18.1018 12.298 18.5077 11.596C17.8137 10.157 16.7792 8.90899 15.4941 7.95996C15.407 7.89629 15.3083 7.85043 15.2035 7.82502C15.0987 7.79961 14.9899 7.79515 14.8834 7.81189C14.7769 7.82863 14.6747 7.86624 14.5828 7.92257C14.4908 7.9789 14.4109 8.05283 14.3476 8.14013C14.2839 8.22715 14.238 8.3259 14.2126 8.43069C14.1872 8.53549 14.1828 8.64427 14.1995 8.7508C14.2162 8.85732 14.2539 8.95949 14.3102 9.05145C14.3665 9.1434 14.4404 9.22332 14.5277 9.28662C16.0484 10.4023 17.1341 12.0119 17.5987 13.8399Z" fill="#0065FF"/>
<path d="M17.5496 18.0164C17.1638 19.4012 16.4166 20.6584 15.3848 21.6594C14.353 22.6603 13.0736 23.3689 11.6777 23.7125C10.2819 24.0561 8.81972 24.0224 7.44117 23.6149C6.06262 23.2073 4.81723 22.4405 3.83263 21.3931C2.84802 20.3457 2.15962 19.0553 1.83797 17.6542C1.51632 16.2531 1.57298 14.7917 2.00216 13.4197C2.43133 12.0477 3.21758 10.8145 4.28033 9.84652C5.34308 8.87849 6.64411 8.21044 8.05008 7.91083C8.26727 7.86522 8.45745 7.7352 8.57877 7.54937C8.7001 7.36354 8.74264 7.13712 8.69703 6.91993C8.65142 6.70274 8.5214 6.51256 8.33557 6.39123C8.14974 6.2699 7.92332 6.22737 7.70613 6.27298C6.09932 6.61768 4.60566 7.3628 3.36383 8.43914C2.12201 9.51548 1.17227 10.8881 0.602821 12.4297C0.0333681 13.9712 -0.137343 15.6317 0.106538 17.2569C0.350419 18.882 1.00098 20.4192 1.99783 21.7257C2.99468 23.0322 4.30548 24.0657 5.80854 24.7301C7.3116 25.3945 8.95817 25.6684 10.5954 25.5263C12.2326 25.3842 13.8073 24.8307 15.1734 23.9172C16.5395 23.0037 17.6527 21.7599 18.4095 20.3012C18.0164 19.584 17.7269 18.8148 17.5496 18.0164Z" fill="#0065FF"/>
<path d="M28.1137 25.5914C27.8965 25.6132 27.6796 25.5477 27.5107 25.4095C27.3417 25.2713 27.2346 25.0716 27.2129 24.8544C27.1912 24.6372 27.2566 24.4203 27.3948 24.2514C27.5331 24.0824 27.7327 23.9753 27.9499 23.9536C29.7694 23.5648 31.4003 22.5632 32.57 21.1163C33.7396 19.6693 34.3772 17.8647 34.376 16.0041C34.3749 14.1436 33.7351 12.3398 32.5636 10.8943C31.3921 9.44882 29.76 8.44926 27.94 8.06271C26.12 7.67617 24.2225 7.92607 22.5647 8.77063C20.9068 9.6152 19.5891 11.0032 18.8319 12.7027C18.0746 14.4022 17.9236 16.3102 18.4042 18.1076C18.8848 19.905 19.9678 21.483 21.4722 22.5778C21.6503 22.7103 21.7685 22.9081 21.8007 23.1277C21.833 23.3473 21.7767 23.5708 21.6442 23.7489C21.5117 23.927 21.3139 24.0451 21.0943 24.0774C20.8747 24.1096 20.6512 24.0533 20.4731 23.9208C18.6646 22.6097 17.3609 20.7175 16.78 18.5605C16.1991 16.4035 16.3763 14.1125 17.2818 12.0704C18.1873 10.0284 19.7664 8.35905 21.755 7.3415C23.7436 6.32394 26.0213 6.01985 28.2072 6.48004C30.3931 6.94023 32.3548 8.13682 33.7644 9.86978C35.1739 11.6027 35.9459 13.767 35.9513 16.0009C35.9566 18.2347 35.195 20.4026 33.7938 22.1423C32.3926 23.882 30.4366 25.088 28.2529 25.5587L28.1137 25.5914Z" fill="#0065FF"/>
<g opacity="0.4">
<path opacity="0.7" d="M7.55867 16.3785V14.4459C7.55867 14.3148 7.55867 14.3148 7.41945 14.3148H6.67423C6.59234 14.3148 6.55139 14.3148 6.55139 14.2002C6.55139 13.9791 6.55139 13.7661 6.55139 13.545C6.55139 13.4631 6.55139 13.4386 6.66604 13.4386H8.00908C8.15649 13.4386 8.15649 13.4386 8.15649 13.2912V12.2839C8.15649 12.1692 8.15649 12.1611 8.28752 12.1611H8.79525C8.88533 12.1611 8.91809 12.1611 8.9099 12.2839V13.2994C8.9099 13.4222 8.9099 13.4222 9.04093 13.4222H9.4422C9.56504 13.4222 9.56504 13.4222 9.57323 13.2994V12.2839C9.57323 12.1611 9.57323 12.1529 9.70426 12.1529H10.1874C10.3185 12.1529 10.3266 12.1529 10.3266 12.2839V13.2912C10.3266 13.414 10.3266 13.414 10.4495 13.414C10.8691 13.4171 11.2778 13.5485 11.6205 13.7907C11.8087 13.9287 11.9653 14.1053 12.0797 14.3086C12.1941 14.512 12.2637 14.7375 12.2839 14.97C12.299 15.1191 12.2811 15.2698 12.2316 15.4113C12.1821 15.5528 12.1021 15.6817 11.9973 15.7889C11.9236 15.8762 11.8413 15.9557 11.7516 16.0264C11.6943 16.0755 11.7024 16.1001 11.7516 16.141C11.9588 16.2501 12.1514 16.3849 12.3248 16.5423C12.5397 16.7629 12.6677 17.0538 12.6852 17.3612C12.7226 17.7107 12.6515 18.0633 12.4815 18.371C12.3115 18.6787 12.051 18.9266 11.7352 19.081C11.3917 19.2757 11.0076 19.3878 10.6133 19.4086H10.4495C10.3266 19.4086 10.3266 19.4086 10.3266 19.5396V20.4732C10.3266 20.6615 10.3266 20.6615 10.1383 20.6615H9.70426C9.57323 20.6615 9.57323 20.6615 9.57323 20.5223C9.57323 20.1947 9.57323 19.8671 9.57323 19.5396C9.57323 19.4413 9.57323 19.4086 9.45039 19.4086H9.00817C8.92628 19.4086 8.90171 19.4085 8.90171 19.5068C8.90171 19.8426 8.90171 20.1783 8.90171 20.5059C8.90171 20.6451 8.90171 20.6533 8.76249 20.6533H8.25476C8.17287 20.6533 8.1483 20.6533 8.1483 20.5469C8.1483 20.2029 8.1483 19.8671 8.1483 19.5232C8.1483 19.4331 8.1483 19.4004 8.02546 19.4004H6.70699C6.55139 19.4004 6.5432 19.4004 6.57596 19.2448C6.60872 19.0892 6.68242 18.778 6.73156 18.5405C6.7335 18.5213 6.73939 18.5028 6.74885 18.4861C6.75831 18.4693 6.77114 18.4547 6.78653 18.4432C6.80192 18.4316 6.81953 18.4234 6.83826 18.419C6.85699 18.4146 6.87642 18.4142 6.89534 18.4176H7.41945C7.55867 18.4176 7.55867 18.4176 7.55867 18.2866V16.3785ZM8.9099 17.5742C8.9099 17.8198 8.9099 18.0655 8.9099 18.3112C8.9099 18.3931 8.9099 18.4258 9.03274 18.4258H10.171C10.3597 18.4241 10.5462 18.3851 10.7197 18.3112C10.8498 18.249 10.9611 18.1537 11.0425 18.0347C11.1239 17.9157 11.1725 17.7774 11.1833 17.6336C11.1941 17.4899 11.1667 17.3459 11.104 17.2161C11.0413 17.0863 10.9455 16.9753 10.8262 16.8944C10.632 16.7742 10.4076 16.7118 10.1792 16.7143H9.00817C8.92628 16.7143 8.89352 16.7143 8.89352 16.8207C8.91809 17.0419 8.9099 17.2875 8.9099 17.5414V17.5742ZM8.9099 15.1174C8.9099 15.3385 8.9099 15.5596 8.9099 15.7725C8.9099 15.8626 8.9099 15.8954 9.03274 15.8954H9.85167C10.0517 15.8954 10.2477 15.8386 10.4167 15.7316C10.5029 15.6799 10.5776 15.6111 10.6363 15.5295C10.6949 15.4479 10.7362 15.3551 10.7577 15.257C10.7792 15.1588 10.7804 15.0573 10.7611 14.9586C10.7419 14.86 10.7028 14.7663 10.646 14.6833C10.5659 14.5779 10.4634 14.4916 10.3458 14.4307C10.2283 14.3698 10.0986 14.3358 9.96632 14.3312C9.65261 14.3148 9.33826 14.3148 9.02455 14.3312C8.94266 14.3312 8.91809 14.3312 8.91809 14.4377C8.91809 14.6506 8.9099 14.8717 8.9099 15.0928V15.1174Z" fill="#0065FF"/>
</g>
<g opacity="0.4">
<path opacity="0.7" d="M26.2057 20.4732H25.788C25.8388 20.3603 25.8586 20.2359 25.8453 20.1128V19.9409C25.8453 19.6706 25.788 19.6051 25.5341 19.556C25.1926 19.4962 24.8651 19.374 24.5678 19.1956C24.0875 18.8919 23.735 18.4229 23.5769 17.8772L24.9036 17.6315H25.01H25.1083C25.107 17.6924 25.1241 17.7524 25.1574 17.8035C25.2741 18.0228 25.4618 18.196 25.6897 18.2948C25.8956 18.3765 26.1152 18.4181 26.3367 18.4176C26.4941 18.4188 26.651 18.3996 26.8035 18.3603C26.911 18.3404 27.0093 18.2868 27.0844 18.2073C27.1595 18.1278 27.2073 18.0266 27.2211 17.9181C27.2345 17.8054 27.2115 17.6914 27.1556 17.5927C27.0996 17.494 27.0135 17.4158 26.9099 17.3694C26.7144 17.2781 26.508 17.2121 26.2957 17.1729C25.7934 17.0794 25.3021 16.9339 24.8299 16.7389C24.4993 16.595 24.2254 16.3461 24.0506 16.0307C23.8759 15.7153 23.8102 15.3511 23.8635 14.9945C23.9103 14.5713 24.0967 14.1758 24.3933 13.8703C24.6899 13.5648 25.0798 13.3668 25.5014 13.3075C25.7798 13.2502 25.8371 13.1847 25.8371 12.8981V12.2839C25.8768 12.2983 25.9203 12.2983 25.96 12.2839H26.525V12.8735C26.5217 12.9086 26.5254 12.944 26.5361 12.9776C26.5467 13.0112 26.564 13.0423 26.5869 13.0691C26.6099 13.0958 26.638 13.1177 26.6695 13.1333C26.7011 13.149 26.7355 13.1581 26.7707 13.1601C27.322 13.2061 27.8388 13.4471 28.2284 13.8398C28.4045 14.0262 28.546 14.2425 28.6461 14.4786L27.2703 14.9045C27.2033 14.7184 27.0794 14.5582 26.9163 14.4465C26.7531 14.3348 26.5589 14.2773 26.3613 14.2821H26.2057C26.0925 14.2815 25.9796 14.2953 25.8699 14.323C25.7631 14.3441 25.666 14.3995 25.5936 14.4808C25.5212 14.5621 25.4773 14.6649 25.4686 14.7734C25.4477 14.887 25.4697 15.0042 25.5302 15.1025C25.5907 15.2008 25.6854 15.2732 25.7962 15.3057C25.9965 15.3883 26.2052 15.4487 26.4186 15.4859L26.7707 15.5678C27.1201 15.646 27.4646 15.7444 27.8026 15.8626C28.1165 15.9761 28.3883 16.1828 28.5815 16.455C28.7747 16.7272 28.8801 17.052 28.8835 17.3858C28.9026 17.8151 28.7786 18.2385 28.5311 18.5897C28.2836 18.941 27.9266 19.2002 27.5159 19.3267C27.2914 19.4109 27.0578 19.4686 26.8199 19.4986C26.78 19.4995 26.7407 19.5087 26.7046 19.5256C26.6685 19.5425 26.6363 19.5668 26.6101 19.5968C26.5839 19.6269 26.5643 19.6621 26.5524 19.7002C26.5406 19.7383 26.5369 19.7784 26.5414 19.818V20.4732H26.2057Z" fill="#0065FF"/>
</g>
</g>
<defs>
<clipPath id="clip0_41_922">
<rect width="36" height="31.8808" fill="white"/>
</clipPath>
</defs>
</svg>
