<svg width="362" height="211" viewBox="0 0 362 211" fill="none" xmlns="http://www.w3.org/2000/svg">
<path d="M113.682 95.3218C113.682 95.3218 113.745 96.8328 113.682 97.44C113.565 97.9717 113.365 98.4816 113.09 98.9511C113.09 98.9511 117.396 100.053 117.728 100.102C118.059 100.151 118.714 97.2776 118.714 97.2776L113.682 95.3218Z" fill="#9C7761"/>
<path opacity="0.5" d="M119.729 43.8339L113.301 48.9883L107.261 43.8339C108.408 43.7354 109.562 43.8969 110.638 44.3064C111.715 44.7159 112.685 45.3628 113.477 46.1993C114.232 45.3036 115.202 44.6161 116.296 44.2021C117.391 43.7881 118.572 43.6613 119.729 43.8339Z" fill="#DFE1E5"/>
<path opacity="0.5" d="M136.102 50.4711L129.688 55.6256L123.648 50.4711C124.798 50.3694 125.957 50.5293 127.037 50.9389C128.117 51.3485 129.091 51.9971 129.886 52.8365C130.637 51.9464 131.601 51.2623 132.689 50.8485C133.776 50.4347 134.951 50.3048 136.102 50.4711Z" fill="#DFE1E5"/>
<path d="M53.4894 59.8197C52.9396 59.6714 52.3828 59.509 51.8401 59.3325L54.8991 49.9345C55.2609 50.0522 55.6297 50.1604 56.0056 50.2593L53.4894 59.8197ZM70.4828 59.3466L67.4239 49.9415C67.7904 49.8239 68.1545 49.6944 68.5164 49.5532L72.0828 58.7676C71.5471 58.9795 71.0044 59.1701 70.4828 59.3466ZM37.8352 49.7156C37.4757 49.2778 37.1303 48.8189 36.785 48.3528L44.7636 42.5417C44.9892 42.8524 45.2241 43.156 45.4685 43.4526L37.8352 49.7156ZM85.538 48.4023L77.5664 42.57C77.7919 42.2593 78.0081 41.9439 78.2148 41.6238L86.5036 46.983C86.2005 47.4632 85.8763 47.9362 85.538 48.4023ZM31.0829 32.3247C31.0829 31.7598 31.0336 31.1808 31.0336 30.6159L40.9012 30.5171V30.6654C40.9012 31.0043 40.9012 31.3714 40.9012 31.7739L31.0829 32.3247ZM91.3176 30.7148L81.45 30.6583V30.6089C81.45 30.2323 81.45 29.8581 81.45 29.4862L91.3176 28.9496C91.3458 29.4956 91.3599 30.0464 91.3599 30.6018L91.3176 30.7148ZM44.1575 19.5727L35.8828 14.1923C36.1929 13.7122 36.5171 13.2391 36.8555 12.7802L44.813 18.6266C44.5874 18.9184 44.3689 19.2338 44.1575 19.5727ZM77.6157 18.7113C77.3902 18.4006 77.1552 18.0947 76.9109 17.7934L84.5794 11.5586C84.9389 12.0035 85.2842 12.4624 85.6226 12.9214L77.6157 18.7113ZM53.8912 11.6504L50.367 2.42894C50.9027 2.22417 51.4454 2.03353 51.9881 1.85701L54.9766 11.2974C54.6054 11.3962 54.2412 11.5163 53.8841 11.6575L53.8912 11.6504ZM67.5014 11.2974C67.1349 11.1797 66.766 11.0691 66.3948 10.9655L68.9322 1.41217C69.482 1.56045 70.0317 1.72285 70.5745 1.89937L67.5014 11.2974Z" fill="#FFC400"/>
<path d="M61.1791 43.1561C68.0925 43.1561 73.6969 37.5417 73.6969 30.6159C73.6969 23.6902 68.0925 18.0758 61.1791 18.0758C54.2658 18.0758 48.6614 23.6902 48.6614 30.6159C48.6614 37.5417 54.2658 43.1561 61.1791 43.1561Z" fill="#FFC400"/>
<path d="M178.787 96.508C193.901 90.917 207.858 82.5877 219.963 71.9362C234.474 59.1125 245.989 43.2454 253.689 25.4615" stroke="#0065FF" stroke-width="2.42" stroke-miterlimit="10" stroke-linecap="round"/>
<path d="M19.1713 192.324C27.6645 183.095 28.8064 177.32 35.8053 174.933C44.665 171.911 48.2596 179.311 56.781 177.108C68.8406 173.987 66.7332 157.846 82.0914 148.49C83.0006 147.932 94.7783 140.97 108.128 144.141C120.935 147.191 130.499 158.495 132.55 160.924C137.364 166.622 137.667 169.313 141.403 170.584C148.832 173.118 153.117 164.328 164.183 162.252C180.302 159.23 195.033 173.422 199.981 178.188C205.824 183.837 212.753 190.488 210.828 197.387C208.777 204.744 198.099 207.23 196.732 207.533H0C7.12869 203.475 13.5942 198.345 19.1713 192.324Z" fill="url(#paint0_linear_48_1001)"/>
<path d="M131.401 161.503H47.3503V207.54H131.401V161.503Z" fill="#243759"/>
<path d="M224.544 143.59H140.493V207.54H224.544V143.59Z" fill="#0052CC"/>
<path d="M319.224 49.2072H235.173V207.215H319.224V49.2072Z" fill="url(#paint1_linear_48_1001)"/>
<path style="mix-blend-mode:multiply" opacity="0.72" d="M291.602 156.582C290.467 161.976 287.619 161.186 285.695 167.096C281.847 178.915 290.199 191.343 293.787 196.666C298.777 204.08 303.598 211.261 310.188 210.993C318.019 210.675 325.25 199.964 325.934 190.749C326.484 183.385 322.572 180.737 324.623 174.509C326.893 167.646 333.786 167.533 334.244 162.245C334.667 157.302 328.929 156.483 327.28 149.535C325.391 141.556 331.862 138.019 329.437 131.36C327.322 125.599 321.909 126.679 319.816 120.847C317.434 114.217 323.425 110.171 320.909 103.978C319.125 99.5795 314.008 96.8752 309.582 96.6704C301.963 96.3174 295.316 103.308 294.231 109.677C293.089 116.314 298.622 120.494 296.127 125.338C293.921 129.616 288.867 127.809 286.619 131.692C283.045 137.899 293.914 145.588 291.602 156.582Z" fill="url(#paint2_linear_48_1001)"/>
<path d="M356.383 166.093C352.52 170.329 348.954 170.711 348.51 173.959C347.988 177.793 352.739 178.972 353.542 183.138C355.22 191.759 337.944 200.606 336.048 201.56C327.358 205.916 315.982 208.529 314.199 205.959C312.507 203.551 321.381 199.646 320.979 192.734C320.514 184.79 308.292 181.634 309.61 175.66C310.315 172.321 314.234 172.907 316.828 168.755C321.804 160.79 312.091 151.202 316.609 147.078C319.428 144.508 323.883 147.586 327.407 144.868C331.833 141.458 326.702 135.145 330.388 127.315C333.271 121.193 340.862 115.601 346.353 116.956C350.807 118.058 353.197 123.551 353.789 127.124C354.881 133.705 350.307 136.345 352.478 140.935C354.381 144.974 358.405 143.964 360.788 148.031C363.861 153.369 360.675 161.341 356.383 166.093Z" fill="#FFC400"/>
<path style="mix-blend-mode:multiply" d="M356.383 166.093C352.52 170.329 348.954 170.711 348.51 173.959C347.988 177.793 352.739 178.972 353.542 183.138C355.22 191.759 337.944 200.606 336.048 201.56C327.358 205.916 315.982 208.529 314.199 205.959C312.507 203.551 321.381 199.646 320.979 192.734C320.514 184.79 308.292 181.634 309.61 175.66C310.315 172.321 314.234 172.907 316.828 168.755C321.804 160.79 312.091 151.202 316.609 147.078C319.428 144.508 323.883 147.586 327.407 144.868C331.833 141.458 326.702 135.145 330.388 127.315C333.271 121.193 340.862 115.601 346.353 116.956C350.807 118.058 353.197 123.551 353.789 127.124C354.881 133.705 350.307 136.345 352.478 140.935C354.381 144.974 358.405 143.964 360.788 148.031C363.861 153.369 360.675 161.341 356.383 166.093Z" fill="url(#paint3_linear_48_1001)"/>
<path d="M313.254 182.312C314.036 183.018 314.875 183.724 315.7 184.43L310.999 173.486C310.58 173.802 310.23 174.201 309.97 174.658L313.254 182.312Z" fill="#FF991F"/>
<path d="M342.857 133.952L347.678 117.486C347.255 117.275 346.811 117.109 346.353 116.992L341.539 133.45L335.943 120.423C335.562 120.734 335.188 121.056 334.822 121.39L340.919 135.569L336.69 149.98L329.021 132.13C328.908 133.273 328.889 134.423 328.965 135.569L336.069 152.105L328.901 176.592L316.856 148.547L315.559 149.104L328.281 178.718L322.184 199.533L320.556 195.741C320.354 196.351 320.094 196.94 319.781 197.5L321.564 201.658L320.049 206.827C320.542 206.761 321.057 206.679 321.592 206.58L322.812 202.506L350.814 178.711C350.483 178.358 350.159 178.005 349.863 177.666L323.516 200.042L329.514 179.565L361.937 152.028C361.894 151.478 361.806 150.932 361.676 150.397L330.219 177.129L337.268 152.981L352.154 140.328C351.973 139.818 351.866 139.286 351.836 138.746L337.987 150.517L342.11 136.444L353.634 126.658C353.535 126.171 353.408 125.662 353.246 125.133L342.857 133.952Z" fill="#FF991F"/>
<path d="M200.876 64.5293C201.398 65.0306 200.171 67.509 203.181 64.035C203.84 63.4907 204.275 62.7209 204.4 61.8744C204.506 60.5752 203.357 60.1516 203.618 58.9583C203.759 58.3087 204.168 58.0898 204.111 57.3837C204.076 56.8894 203.822 56.3316 203.576 56.3316C203.329 56.3316 203.244 57.0377 202.659 58.2946C202.074 59.5514 201.856 59.4455 201.482 60.4764C201.327 60.9071 201.278 61.1825 200.947 62.1074C200.852 62.3367 200.774 62.5727 200.714 62.8135C200.651 63.216 200.467 64.1198 200.876 64.5293Z" fill="#A27F68"/>
<path d="M170.731 79.2371C170.843 77.4084 173 76.4551 176.066 75.1701C183.918 71.8797 187.343 71.7738 191.34 69.9662C195.236 68.1278 198.59 65.3081 201.074 61.7827L203.047 64.8329C199.966 68.4247 196.461 71.6279 192.609 74.3722C189.924 76.256 187.112 77.9501 184.193 79.4419C178.716 82.2662 176.017 82.6616 174.325 84.2292C174.145 84.4332 173.892 84.5576 173.62 84.5751C172.352 84.5469 170.604 81.2918 170.731 79.2371Z" fill="#2DB07C"/>
<path d="M202.011 60.0174L205.112 56.6776C205.225 56.6054 205.36 56.579 205.491 56.604C205.622 56.629 205.739 56.7033 205.817 56.8118C205.775 57.0871 205.761 57.3837 205.916 57.4825C206.071 57.5814 206.176 57.4261 206.332 57.4825C206.613 57.6096 206.592 58.1886 206.585 58.3863C206.578 58.5881 206.543 58.7878 206.48 58.9794L206.642 59.6855C206.678 59.8088 206.68 59.9397 206.648 60.0641C206.616 60.1886 206.55 60.3018 206.458 60.3916L206.388 61.4366C206.543 61.7897 205.345 62.757 205.31 62.7994L203.505 63.6326C203.442 63.7054 203.359 63.7591 203.267 63.7877C203.174 63.8163 203.076 63.8186 202.982 63.7944C202.889 63.7703 202.804 63.7206 202.737 63.6508C202.67 63.5811 202.624 63.4941 202.603 63.3995L201.898 60.4905C201.877 60.4084 201.877 60.3224 201.896 60.24C201.916 60.1576 201.955 60.0812 202.011 60.0174Z" fill="#A27F68"/>
<path d="M168.56 95.1664C168.44 95.3995 168.313 95.6748 168.172 95.9784C167.756 96.9076 167.407 97.8657 167.129 98.8452C166.796 100.081 166.56 101.342 166.424 102.616C166.184 105.087 166.565 110.983 168.045 118.658L166.819 127.187C166.819 127.187 165.747 135.223 167.777 139.283C167.996 139.713 168.482 140.695 169.187 140.695C169.892 140.695 170.526 140.695 171.154 140.624C171.901 140.568 172.288 139.918 172.486 139.212C173.324 136.155 174.516 123.332 174.6 119.018C174.685 114.986 175.502 100.85 173.761 98.4144C173.19 97.5318 171.978 95.9714 168.56 95.1664Z" fill="#00875A"/>
<path d="M200.876 64.5293C201.398 65.0306 200.171 67.509 203.181 64.035C203.84 63.4907 204.275 62.7209 204.4 61.8744C204.506 60.5752 203.357 60.1516 203.618 58.9583C203.759 58.3087 204.168 58.0898 204.111 57.3837C204.076 56.8894 203.822 56.3316 203.576 56.3316C203.329 56.3316 203.244 57.0377 202.659 58.2946C202.074 59.5514 201.856 59.4455 201.482 60.4764C201.327 60.9071 201.278 61.1825 200.947 62.1074C200.852 62.3367 200.774 62.5727 200.714 62.8135C200.651 63.216 200.467 64.1198 200.876 64.5293Z" fill="#A27F68"/>
<path d="M170.731 79.2371C170.843 77.4084 173 76.4551 176.066 75.1701C183.918 71.8797 187.343 71.7738 191.34 69.9662C195.236 68.1278 198.59 65.3081 201.074 61.7827L203.047 64.8329C199.966 68.4247 196.461 71.6279 192.609 74.3722C189.924 76.256 187.112 77.9501 184.193 79.4419C178.716 82.2662 176.017 82.6616 174.325 84.2292C174.145 84.4332 173.892 84.5576 173.62 84.5751C172.352 84.5469 170.604 81.2918 170.731 79.2371Z" fill="url(#paint4_linear_48_1001)"/>
<path d="M176.764 72.8188L174.861 71.0677C174.709 70.5082 174.442 69.9864 174.078 69.5355C173.714 69.0845 173.261 68.7143 172.746 68.4481C172.051 68.1007 171.263 67.9868 170.498 68.1233C168.814 68.4693 167.615 70.1992 167.397 71.8091C167.009 74.6334 169.695 76.5187 170.019 76.7517C170.602 77.1836 171.268 77.4889 171.976 77.6481C172.684 77.8074 173.416 77.8171 174.128 77.6767C175.144 77.4205 176.053 76.8467 176.722 76.0385L175.975 73.5461L176.764 72.8188Z" fill="#A27F68"/>
<path d="M170.695 73.1789C171.259 73.0165 171.287 72.0703 171.647 70.9688C172.309 68.9494 173.416 68.5258 173.162 67.9962C172.782 67.1842 169.709 67.043 167.954 68.787C167.384 69.3906 166.981 70.1329 166.785 70.9405C166.59 71.748 166.609 72.5927 166.84 73.3907C167.155 74.3982 167.77 75.2852 168.602 75.9326C169.028 76.2734 169.503 76.5472 170.012 76.7446C170.125 76.2783 170.108 75.7896 169.962 75.3325C169.688 74.5063 169.025 74.125 169.159 73.5178C169.189 73.3612 169.271 73.2193 169.391 73.1153C169.765 72.8541 170.251 73.306 170.695 73.1789Z" fill="#42526E"/>
<path d="M206.994 70.7923C206.416 70.9406 205.782 70.0862 205.535 69.5143C205.399 69.1915 205.329 68.8445 205.329 68.494C205.329 68.1435 205.399 67.7965 205.535 67.4737C205.916 66.6335 206.487 66.7182 207.262 65.6944C208.037 64.6705 208.065 63.8091 208.34 63.8232C208.615 63.8374 208.756 64.487 208.749 65.073C208.749 66.1674 208.044 66.3722 207.875 67.5514C207.727 68.4905 208.101 68.7023 207.805 69.6273C207.692 69.945 207.466 70.6652 206.994 70.7923Z" fill="#A27F68"/>
<path d="M206.05 67.0783C206.05 67.0783 209.433 65.8426 209.912 65.0236C210.391 64.2045 210.314 63.5196 210.709 63.5055C211.103 63.4914 210.976 64.9176 211.167 65.0659C211.357 65.2142 211.639 65.0659 211.674 65.5037C211.769 65.9696 211.769 66.45 211.674 66.9159C211.146 68.0211 210.392 69.0027 209.461 69.7967C208.714 70.2274 207.213 71.2089 206.31 71.0747C205.408 70.9406 205.761 67.7702 205.761 67.7702L206.05 67.0783Z" fill="#A27F68"/>
<path d="M183.114 78.3333C183.368 79.3713 188.852 81.9202 186.336 83.8761C184.785 85.0835 182.064 88.1126 181.338 89.9838C180.958 90.8233 180.654 91.6953 180.429 92.5892C180.291 93.5621 179.855 94.4683 179.183 95.1837C178.51 95.8991 177.633 96.3888 176.672 96.5857C172.126 97.4895 166.558 98.4639 167.15 95.4912C167.855 92.0102 168.243 82.9441 170.787 78.2133C171.978 75.9467 175.883 77.7331 183.114 78.3333Z" fill="#48CC8C"/>
<path d="M172.147 82.2733C173.127 78.418 181.162 79.4489 190.854 76.1797C196.109 74.3908 201.013 71.698 205.345 68.2221L207.685 71.0465C203.828 75.509 199.085 79.1163 193.757 81.6378C187.019 84.7234 178.012 86.3615 175.432 88.2185C175.199 88.4165 174.898 88.5153 174.593 88.4939C173.219 88.2609 171.591 84.4621 172.147 82.2733Z" fill="#48CC8C"/>
<path d="M166.974 95.9784H176.447C177.568 95.9784 178.644 96.4248 179.437 97.2193C180.23 98.0138 180.676 99.0914 180.676 100.215V103.237H169.864C169.103 103.237 168.373 102.934 167.835 102.395C167.297 101.856 166.995 101.125 166.995 100.363V96.0137L166.974 95.9784Z" fill="#008364"/>
<path d="M173.966 68.1092C172.739 69.0506 171.499 70.0345 170.244 71.0606C168.99 72.0868 167.801 73.0706 166.678 74.0121C166.221 73.5428 165.868 72.9833 165.639 72.3693C165.411 71.7553 165.313 71.1003 165.352 70.4463C165.391 69.7922 165.565 69.1534 165.864 68.5708C166.164 67.9881 166.581 67.4744 167.089 67.0625C167.598 66.6506 168.187 66.3496 168.818 66.1787C169.45 66.0077 170.11 65.9707 170.756 66.0699C171.403 66.169 172.022 66.4023 172.573 66.7546C173.124 67.107 173.596 67.5708 173.959 68.1163L173.966 68.1092Z" fill="#64E6A4"/>
<path d="M163.619 100.822C165.702 100.822 167.39 99.1309 167.39 97.0446C167.39 94.9583 165.702 93.2671 163.619 93.2671C161.536 93.2671 159.848 94.9583 159.848 97.0446C159.848 99.1309 161.536 100.822 163.619 100.822Z" fill="#FF8B00"/>
<path d="M167.771 79.1582L167.764 79.1567C165.196 78.6 162.664 80.2342 162.108 82.8069L160.439 90.5362C159.883 93.1089 161.514 95.6458 164.082 96.2025L164.089 96.204C166.657 96.7607 169.19 95.1264 169.745 92.5537L171.415 84.8244C171.971 82.2517 170.339 79.7149 167.771 79.1582Z" fill="#FFAB00"/>
<path d="M162.837 84.9653C162.979 84.4181 162.653 83.8594 162.109 83.7172C161.565 83.5751 161.008 83.9034 160.866 84.4506L159.525 89.6023C159.383 90.1495 159.709 90.7083 160.253 90.8504C160.797 90.9926 161.354 90.6642 161.496 90.1171L162.837 84.9653Z" fill="#FF991F"/>
<path d="M176.334 145.927C174.353 146.054 170.054 146.393 169.554 145.532C169.554 145.532 169.413 145.263 169.208 145.242C169.004 145.221 168.863 145.405 168.764 145.489C168.546 145.68 168.059 145.779 167.073 145.39C166.903 145.381 166.743 145.311 166.621 145.193C166.566 145.136 166.523 145.069 166.495 144.994C166.467 144.92 166.455 144.841 166.459 144.762L166.607 142.241C166.636 141.966 166.772 141.714 166.986 141.539C167.2 141.364 167.475 141.282 167.749 141.309C168.138 141.361 168.531 141.361 168.919 141.309C170.139 141.126 170.59 140.518 171.161 140.695C171.732 140.871 171.647 141.486 172.098 142.234C172.373 142.49 172.665 142.726 172.972 142.94C174.231 143.786 175.689 144.288 177.201 144.395L177.342 145.899L176.334 145.927Z" fill="#243759"/>
<path d="M166.643 134.008L166.572 142.933L171.612 143.194L174.015 134.291L166.643 134.008Z" fill="#243759"/>
<path d="M201.814 138.322C199.96 139.029 195.949 140.61 195.216 139.939C195.164 139.881 195.1 139.836 195.028 139.805C194.956 139.775 194.878 139.76 194.801 139.763C194.61 139.798 194.519 140.017 194.448 140.13C194.293 140.377 193.891 140.603 192.806 140.533C192.642 140.573 192.47 140.552 192.32 140.476C192.25 140.438 192.188 140.386 192.14 140.322C192.091 140.259 192.056 140.186 192.038 140.109L191.438 137.659C191.385 137.387 191.44 137.105 191.594 136.875C191.747 136.645 191.985 136.485 192.256 136.43C192.642 136.36 193.016 136.239 193.37 136.07C194.483 135.533 194.737 134.82 195.329 134.827C195.921 134.834 196.034 135.442 196.675 136.021C197.011 136.181 197.357 136.318 197.711 136.43C199.158 136.869 200.693 136.923 202.166 136.585L202.744 137.998L201.814 138.322Z" fill="#243759"/>
<path d="M179.929 97.0376L190.106 109.211C190.682 109.898 191.096 110.707 191.319 111.576C192.024 114.28 192.644 116.476 193.102 118.03C194.723 123.466 195.632 125.507 195.823 128.981C195.929 131.02 195.768 133.064 195.343 135.06L191.72 135.258C188.103 128.999 185.604 122.155 184.334 115.036C180.069 112.454 175.992 109.573 172.133 106.414C172.133 106.414 169.039 103.703 169.349 101.754C169.476 100.956 169.603 100.286 169.666 99.9608C169.871 98.9158 170.054 98.0685 170.174 97.5036C173.424 97.8595 176.709 97.7118 179.915 97.0658L179.929 97.0376Z" fill="url(#paint5_linear_48_1001)"/>
<path d="M189.063 129.772L191.608 138.33L196.506 137.094L196.401 127.654L189.063 129.772Z" fill="#243759"/>
<path d="M168.095 96.3456L178.787 96.508" stroke="#0065FF" stroke-width="2.34" stroke-miterlimit="10" stroke-linecap="round"/>
<path d="M138.069 111.618C137.857 111.986 137.709 112.387 137.632 112.804C137.586 113.138 137.64 113.477 137.787 113.779C138.266 114.612 139.901 114.711 140.945 114.16C141.368 113.911 141.737 113.58 142.03 113.186C142.538 112.607 142.516 112.388 142.481 112.282C142.444 112.2 142.389 112.128 142.321 112.069C142.253 112.011 142.173 111.968 142.086 111.943C142.516 111.59 142.587 111.357 142.559 111.237C142.495 110.947 142.009 110.672 142.009 110.672C142.009 110.672 142.312 110.072 142.122 109.881C142.058 109.818 141.96 109.804 141.551 109.832C140.783 109.881 140.804 109.931 140.67 109.895C140.226 109.761 140.233 109.232 139.838 109.189C139.732 109.185 139.626 109.202 139.527 109.24C139.427 109.277 139.337 109.335 139.26 109.408C138.95 109.641 138.901 109.902 138.555 110.587C138.372 111.046 138.386 110.926 138.069 111.618Z" fill="#B5917C"/>
<path d="M99.5218 123.565C99.2319 123.241 98.8886 122.969 98.5069 122.76C98.1969 122.607 97.8483 122.551 97.506 122.598C96.5404 122.803 95.9272 124.363 96.0964 125.563C96.204 126.059 96.4102 126.527 96.7025 126.94C97.1043 127.646 97.3228 127.646 97.4073 127.646C97.4979 127.636 97.585 127.606 97.6629 127.558C97.7407 127.511 97.8074 127.447 97.8584 127.371C98.0628 127.908 98.2672 128.077 98.4293 128.077C98.7324 128.077 99.1342 127.724 99.1342 127.724C99.1342 127.724 99.6205 128.211 99.839 128.091C99.9236 128.049 99.9659 127.957 100.072 127.548C100.269 126.785 100.213 126.785 100.29 126.665C100.565 126.27 101.08 126.453 101.27 126.086C101.312 125.986 101.334 125.877 101.334 125.768C101.334 125.659 101.312 125.551 101.27 125.451C101.143 125.069 100.903 124.942 100.332 124.42C99.98 124.031 100.086 124.081 99.5218 123.565Z" fill="#B5917C"/>
<path d="M114.549 122.753C119.483 129.623 119.532 134.128 118.778 136.875C117.883 140.059 115.747 141.457 110.482 147.664C107.409 151.286 105.076 154.421 103.546 156.561L100.995 154.555C102.145 152.465 102.877 150.169 103.152 147.798C103.218 146.592 103.514 145.411 104.026 144.317C104.417 143.595 104.872 142.91 105.386 142.269C106.965 140.109 108.339 138.485 109.143 137.588C109.742 136.882 110.249 136.36 110.602 135.971C110.186 134.884 109.319 132.617 108.198 129.616C106.485 125.055 105.64 122.718 106.253 120.035C106.391 119.435 106.59 118.851 106.845 118.291C108.969 120.458 111.654 121.988 114.598 122.711L114.549 122.753Z" fill="url(#paint6_linear_48_1001)"/>
<path d="M116.297 107.452C116.847 109.345 117.227 110.919 118.482 112.692C119.672 114.36 121.239 115.722 123.056 116.667C125.141 117.212 127.295 117.45 129.449 117.373C132.727 117.243 135.936 116.394 138.851 114.887C139.051 114.183 138.986 113.429 138.668 112.769C138.454 112.348 138.139 111.987 137.752 111.717C135.755 111.717 133.708 111.717 131.613 111.717C129.367 111.684 127.172 111.618 125.03 111.519C124.712 110.99 124.226 110.107 123.712 109.034C122.302 106.033 122.189 104.501 120.61 102.128C120.082 101.145 119.227 100.378 118.193 99.9608C117.871 99.8206 117.525 99.7483 117.174 99.7483C116.824 99.7483 116.477 99.8206 116.156 99.9608C114.429 100.97 115.916 106.118 116.297 107.452Z" fill="#243759"/>
<path d="M111.405 108.37L108.438 123.198H118.193C119.511 120.663 119.602 118.962 119.377 117.782C119.287 117.39 119.23 116.991 119.208 116.589C119.188 115.239 119.565 113.913 120.293 112.776C120.998 111.505 121.646 109.062 121.139 103.943C121.095 103.377 120.955 102.823 120.723 102.305C119.49 99.5583 116.106 98.9511 115.613 98.8663L115.19 100.985C114.666 100.921 114.136 101.051 113.701 101.352C113.266 101.652 112.956 102.102 112.829 102.616L111.405 108.37Z" fill="#243759"/>
<path d="M116.72 99.6007C119.109 100.017 119.342 102.319 119.356 104.282C119.405 109.225 118.531 113.581 117.446 118.333H106.824L109.509 102.03L111.18 100.476C111.68 99.9989 112.284 99.6446 112.945 99.4412C113.605 99.2378 114.304 99.1909 114.986 99.3041L116.72 99.6007Z" fill="#A5ADBA"/>
<path d="M120.258 88.734C120.385 89.2282 120.505 89.7719 120.596 90.365C120.711 91.1012 120.777 91.8443 120.794 92.5892C120.836 92.7093 120.92 92.914 121.047 93.1682C121.484 94.0367 121.808 94.3262 121.71 94.5804C121.611 94.8346 121.435 94.8487 120.758 94.8275C120.716 95.0746 120.645 95.4347 120.526 95.8725C120.437 96.3644 120.275 96.8404 120.046 97.2847C119.468 98.1249 118.066 98.0896 117.051 98.0614C116.133 98.1441 115.218 97.8796 114.485 97.32C114.191 97.0482 113.952 96.7222 113.78 96.3597C113.532 95.8357 113.413 95.2591 113.435 94.6792C113.65 94.6788 113.863 94.6381 114.062 94.5592C114.463 94.3827 114.802 94.09 115.035 93.719C115.571 92.9352 116.91 90.9582 118.432 90.3015C118.797 90.1608 119.137 89.963 119.44 89.7154C119.77 89.4409 120.047 89.1082 120.258 88.734Z" fill="#B5917C"/>
<path d="M118.616 90.3792L118.954 93.0623C118.602 93.4012 118.348 93.4436 118.172 93.4153C117.622 93.3165 117.587 92.4056 116.91 92.2291C116.781 92.1875 116.643 92.1792 116.51 92.2052C116.377 92.2311 116.253 92.2903 116.149 92.3774C115.825 92.7304 116.388 93.2953 116.149 93.9802C116.05 94.2556 115.888 94.3615 114.831 95.1382L113.696 95.9784C113.383 95.4039 113.103 94.8122 112.857 94.2062C112.618 93.6201 111.448 90.591 112.152 89.3977C112.374 89.0327 112.691 88.7349 113.069 88.5363C113.183 88.4642 113.3 88.3982 113.421 88.3386C114.831 87.6325 118.503 87.9361 120.103 87.3854C120.213 87.3341 120.334 87.3076 120.455 87.3076C120.577 87.3076 120.697 87.3341 120.808 87.3854C121.047 87.5619 121.047 87.9714 121.019 88.2256C120.487 89.2107 119.623 89.9741 118.58 90.3792H118.616Z" fill="#F0F2F5"/>
<path d="M139.338 131.135C139.056 130.139 138.421 129.631 137.632 128.72C136.388 127.279 135.395 125.639 134.693 123.869C134.06 122.77 133.161 121.847 132.08 121.186C130.999 120.525 129.77 120.146 128.504 120.084H128.11H106.26V120.557C106.258 121.275 106.365 121.99 106.577 122.676C106.931 123.771 107.534 124.77 108.339 125.592C109.716 127.008 111.454 128.02 113.365 128.515C117.086 129.574 119.87 128.868 124.36 128.317C125.304 128.204 126.418 128.084 127.68 127.978C128.385 129.348 129.089 130.683 129.794 131.961C130.47 133.277 131.361 134.47 132.43 135.491C132.804 135.781 134.023 136.628 136.398 136.388L138.449 135.202C139.084 134.157 139.768 132.631 139.338 131.135Z" fill="url(#paint7_linear_48_1001)"/>
<path d="M148.296 139.629C146.823 140.956 143.658 143.865 142.735 143.533C142.664 143.501 142.587 143.483 142.509 143.483C142.431 143.483 142.354 143.501 142.284 143.533C142.122 143.632 142.115 143.872 142.093 143.999C142.037 144.282 141.741 144.649 140.684 144.974C140.546 145.069 140.378 145.111 140.212 145.094C140.133 145.084 140.058 145.059 139.99 145.019C139.922 144.979 139.863 144.925 139.817 144.861L138.372 142.799C138.233 142.568 138.188 142.292 138.247 142.029C138.306 141.766 138.465 141.536 138.689 141.387C139.024 141.181 139.329 140.932 139.598 140.645C140.437 139.742 140.423 138.986 141.008 138.774C141.593 138.563 141.875 139.092 142.693 139.403C143.063 139.429 143.435 139.429 143.806 139.403C145.32 139.289 146.778 138.781 148.035 137.927L149.078 139.021L148.296 139.629Z" fill="#243759"/>
<path d="M133.311 136.303L138.788 143.35L142.897 140.42L139.38 131.657L133.311 136.303Z" fill="#243759"/>
<path d="M109.523 161.348C107.564 161.051 103.293 160.465 102.983 159.526C102.983 159.491 102.898 159.237 102.708 159.166C102.517 159.096 102.341 159.251 102.221 159.314C101.968 159.449 101.516 159.456 100.593 158.863C100.431 158.816 100.291 158.714 100.198 158.573C100.155 158.506 100.127 158.43 100.115 158.351C100.102 158.272 100.107 158.191 100.128 158.114L100.833 155.685C100.875 155.554 100.943 155.433 101.032 155.328C101.121 155.224 101.23 155.138 101.353 155.075C101.475 155.013 101.609 154.976 101.746 154.965C101.883 154.955 102.02 154.971 102.151 155.014C102.522 155.143 102.908 155.221 103.3 155.247C104.533 155.325 105.104 154.831 105.619 155.12C106.133 155.41 105.929 155.996 106.204 156.822C106.418 157.125 106.654 157.413 106.908 157.683C107.955 158.773 109.267 159.572 110.715 159.999L110.538 161.503L109.523 161.348Z" fill="#243759"/>
<path d="M102.567 147.643L100.614 156.356L105.485 157.676L110.01 149.387L102.567 147.643Z" fill="#243759"/>
<path d="M110.01 119.159H119.356" stroke="#0065FF" stroke-width="2.34" stroke-miterlimit="10" stroke-linecap="round"/>
<path d="M108.078 105.722C106.788 110.28 106.042 114.976 105.858 119.71C106.137 119.979 106.444 120.215 106.774 120.416C108.79 121.581 111.962 121.581 113.788 119.71C114.39 119.086 114.818 118.314 115.028 117.472L117.495 101.352C117.542 101.061 117.529 100.765 117.457 100.479C117.386 100.194 117.257 99.9265 117.079 99.6927C116.901 99.4588 116.677 99.2637 116.422 99.1193C116.166 98.9748 115.884 98.8839 115.592 98.8522L112.244 98.4497C111.522 98.3628 110.794 98.5431 110.195 98.9566C109.597 99.3701 109.17 99.9883 108.995 100.695C108.96 102.409 108.651 104.107 108.078 105.722Z" fill="#243759"/>
<path d="M114.986 99.3041C114.852 98.5415 108.438 97.2494 101.7 100.716C100.234 101.479 95.1448 104.077 94.0946 108.928C94.0946 109.006 94.0946 109.09 94.0453 109.182C93.838 110.523 93.8691 111.891 94.1369 113.221C94.5387 115.579 94.9545 115.904 94.9545 117.634C94.9545 118.248 94.9052 118.34 94.8981 118.898C94.8878 120.3 95.1662 121.69 95.7157 122.979L97.6399 123.071C98.38 123.071 99.1271 123.135 99.5641 123.163C100.068 121.772 100.307 120.299 100.269 118.82C100.22 116.914 99.7051 116.314 99.987 114.457C100.22 113.565 100.38 112.656 100.466 111.738C100.487 110.833 100.356 109.931 100.079 109.069C103.194 107.968 105.633 107.163 107.127 106.676C110.954 105.426 113.548 104.656 113.766 103.096C113.872 102.326 113.365 101.578 113.851 100.575C114.295 99.6995 115.028 99.5583 114.986 99.3041Z" fill="#243759"/>
<path d="M119.356 119.159C127.786 121.231 136.62 120.967 144.913 118.397C161.772 113.08 170.012 99.876 172.035 96.4021" stroke="#0065FF" stroke-width="2.34" stroke-miterlimit="10" stroke-linecap="round"/>
<path d="M120.117 87.3712C118.745 88.4351 117.359 89.5342 115.958 90.6686C114.558 91.8031 113.231 92.9022 111.976 93.9661C111.474 93.4401 111.086 92.8154 110.837 92.1315C110.588 91.4477 110.483 90.7194 110.53 89.993C110.576 89.2665 110.773 88.5576 111.107 87.9112C111.441 87.2647 111.905 86.6947 112.47 86.2373C113.036 85.7798 113.69 85.4449 114.391 85.2537C115.092 85.0625 115.825 85.0191 116.544 85.1264C117.262 85.2336 117.951 85.4891 118.566 85.8768C119.181 86.2644 119.709 86.7757 120.117 87.3783V87.3712Z" fill="#42526E"/>
<path d="M243.751 10.1323C245.756 10.1323 247.381 8.5043 247.381 6.496C247.381 4.4877 245.756 2.85965 243.751 2.85965C241.746 2.85965 240.121 4.4877 240.121 6.496C240.121 8.5043 241.746 10.1323 243.751 10.1323Z" fill="#253858"/>
<path d="M251.434 27.5798C251.885 31.7106 251.403 35.8901 250.024 39.8092L248.241 39.6397C248.241 39.0325 248.241 38.0722 248.149 36.9001C247.98 34.6406 247.691 33.7651 247.613 32.0281C247.561 30.7908 247.632 29.5514 247.825 28.3282C247.322 27.3209 246.826 26.2876 246.338 25.2285C244.85 22.0158 243.575 18.8737 242.482 15.8728C242.456 15.7996 242.444 15.7218 242.447 15.644C242.451 15.5661 242.47 15.4898 242.504 15.4195C242.537 15.3491 242.584 15.2862 242.642 15.2343C242.7 15.1824 242.768 15.1426 242.842 15.1173L246.366 13.8676L251.434 27.5798Z" fill="#FFC400"/>
<path d="M267.99 46.6018L254.38 49.1931C253.785 49.2308 253.189 49.1456 252.629 48.9428C252.069 48.7399 251.556 48.4237 251.123 48.0139C250.533 47.3215 250.171 46.4633 250.087 45.5567C249.948 44.4028 250.047 43.2325 250.376 42.1181C250.426 41.9275 250.468 41.7792 250.496 41.6803C251.793 37.2673 252.463 35.6856 253.111 33.3414C254.154 29.5851 253.654 29.811 254.401 27.8269C255.554 24.98 257.486 22.5176 259.976 20.7237C260.647 21.5069 261.238 22.3562 261.738 23.2585C262.351 24.2628 262.792 25.3631 263.042 26.5136C263.235 27.6706 263.211 28.8534 262.972 30.0016C262.503 32.5412 261.637 34.9909 260.406 37.2602C259.527 38.9663 258.511 40.598 257.368 42.1393C259.067 41.5603 260.892 41.0025 262.767 40.48C264.214 40.0799 265.624 39.7292 266.996 39.4279L267.99 46.6018Z" fill="url(#paint8_linear_48_1001)"/>
<path d="M259.948 20.7025C260.645 21.4672 261.244 22.3164 261.731 23.2303C262.513 24.6989 263.493 26.5489 263.028 28.7942C262.934 29.5411 262.678 30.2582 262.277 30.895C261.876 31.5319 261.341 32.0729 260.709 32.48C260.149 32.8105 259.57 33.1075 258.975 33.3697C258.103 33.7259 257.202 34.0093 256.283 34.217C253.238 34.8878 248.614 34.5489 248.304 34.5277C249.312 35.3114 250.369 36.2011 251.441 37.2108C252.754 38.4364 253.992 39.7403 255.148 41.1155L249.178 45.239C247.656 43.7774 246.063 42.1322 244.456 40.2964C242.726 38.3143 241.098 36.2452 239.578 34.097C239.31 33.363 239.275 32.5637 239.48 31.8092C239.678 31.2143 240.009 30.6724 240.447 30.2246C240.886 29.7769 241.42 29.435 242.01 29.225L248.706 27.0502L253.675 25.4615C254.845 24.7554 256.085 23.8658 257.361 22.8702C258.313 22.1429 259.166 21.4156 259.948 20.7025Z" fill="#FFAB00"/>
<path d="M244.738 22.962L253.52 25.5815C254.599 24.9596 255.642 24.2759 256.642 23.5339C257.816 22.6686 258.929 21.725 259.976 20.7095C257.817 18.4907 255.496 16.435 253.033 14.5595C251.828 13.6487 251.095 13.1827 249.615 12.2577C248.351 11.4479 246.998 10.7869 245.583 10.2877L244.576 10.0335L242.574 14.6796C242.395 15.0951 242.334 15.552 242.398 15.9999L243.102 21.0626C243.156 21.5038 243.339 21.9194 243.627 22.2572C243.915 22.5951 244.297 22.8402 244.724 22.962H244.738Z" fill="url(#paint9_linear_48_1001)"/>
<path d="M243.102 15.5339C242.931 15.1312 242.86 14.6922 242.898 14.2559C242.552 13.4368 242.019 12.711 241.34 12.1376C241.082 11.919 240.803 11.7252 240.509 11.5586L242.193 9.0379L244.576 10.0335L244.188 11.3609C243.957 12.2227 243.808 13.1046 243.744 13.9946C243.727 14.1645 243.694 14.3323 243.645 14.496C243.54 14.8768 243.355 15.2307 243.102 15.5339Z" fill="#72594B"/>
<path d="M243.617 49.2072C243.976 48.5196 244.565 47.9799 245.28 47.6821C246.479 47.1596 247.19 47.6821 248.671 47.0254C249.086 46.8418 250.08 46.4111 250.08 45.7333C250.068 45.5703 250.022 45.4117 249.944 45.268C249.867 45.1243 249.759 44.9989 249.629 44.9001L252.54 42.8807C253.179 43.6682 253.639 44.5865 253.886 45.5709C254.205 46.7536 254.357 47.9752 254.337 49.2002L243.617 49.2072Z" fill="#253858"/>
<path d="M267.229 41.2426C268.422 40.6914 269.755 40.5189 271.049 40.7483L271.007 47.8092C271.03 47.9921 271.014 48.1778 270.96 48.3542C270.907 48.5305 270.817 48.6937 270.697 48.833C270.497 49.0514 270.228 49.1937 269.935 49.2355H266.693C266.789 49.0049 266.92 48.7905 267.081 48.6C267.743 47.8162 268.547 47.9292 268.836 47.2655C268.941 46.9879 268.958 46.6847 268.885 46.397C268.814 46.0966 268.671 45.8179 268.469 45.585C268.274 45.329 268.035 45.1092 267.764 44.9354L267.229 41.2426Z" fill="#253858"/>
<path d="M242.193 9.17915L240.156 12.2153C239.878 12.6318 239.448 12.9231 238.958 13.0273C238.531 13.118 238.086 13.0608 237.696 12.8649L236.068 12.0035L235.793 12.4766C235.774 12.5203 235.742 12.5575 235.702 12.5836C235.662 12.6097 235.616 12.6236 235.568 12.6236C235.52 12.6236 235.473 12.6097 235.433 12.5836C235.393 12.5575 235.362 12.5203 235.342 12.4766L234.821 11.1703L234.292 10.5843C233.612 9.83983 233.098 8.95888 232.784 7.99998C232.579 7.37385 232.512 6.7107 232.587 6.05615C232.663 5.40159 232.879 4.77118 233.221 4.20829C233.596 3.59396 234.111 3.07728 234.723 2.70052C235.336 2.32376 236.028 2.09762 236.745 2.04061H237.034C237.353 2.01505 237.674 2.05345 237.978 2.15358C238.779 2.41926 239.491 2.9026 240.033 3.54967C240.576 4.19674 240.928 4.98211 241.051 5.81817L241.192 6.83494L242.193 9.17915Z" fill="#72594B"/>
<path d="M244.576 10.0335L243.349 17.1367L241.002 25.052C239.803 25.4335 238.626 25.8838 237.478 26.4006C234.715 27.6504 233.665 28.6318 230.909 29.8816C229.799 30.3873 228.66 30.8258 227.498 31.1949L228.505 32.9743L236.118 30.7077C236.118 30.7077 240.784 29.6627 243.314 27.1773C246.197 24.353 247.367 20.6884 248.17 17.9982C248.466 17.0026 248.664 16.1623 248.783 15.5834C248.887 14.9401 248.859 14.2825 248.701 13.6504C248.543 13.0183 248.259 12.4249 247.865 11.9061C247.472 11.3872 246.978 10.9538 246.412 10.6319C245.847 10.31 245.222 10.1064 244.576 10.0335Z" fill="url(#paint10_linear_48_1001)"/>
<path d="M228.365 32.706C228.154 33.1037 227.86 33.4506 227.502 33.7225C227.144 33.9945 226.731 34.1849 226.292 34.2805C225.708 34.3031 225.128 34.1742 224.608 33.9063C223.932 33.6422 223.298 33.2806 222.726 32.8331L220.809 34.2452C220.734 34.2962 220.646 34.3235 220.555 34.3235C220.465 34.3235 220.376 34.2962 220.301 34.2452C220.24 34.2117 220.189 34.1642 220.15 34.1066C220.111 34.049 220.086 33.9829 220.078 33.9139C220.07 33.8449 220.078 33.775 220.102 33.7098C220.126 33.6446 220.166 33.5861 220.217 33.5392L221.838 31.8234C221.959 31.6917 222.125 31.611 222.303 31.5974L224.53 31.3926L227.709 31.1596L228.365 32.706Z" fill="#72594B"/>
<path d="M221.217 33.5956L220.428 34.5206C220.359 34.6052 220.321 34.7113 220.321 34.8207C220.321 34.9301 220.359 35.0362 220.428 35.1208C220.503 35.2171 220.613 35.2804 220.734 35.2976C220.855 35.3147 220.978 35.2842 221.077 35.2126L223.431 33.5321L225.313 33.5956L224.551 32.48H222.627L221.217 33.5956Z" fill="#72594B"/>
<path d="M221.161 36.0811C221.244 36.1565 221.352 36.1983 221.464 36.1983C221.576 36.1983 221.684 36.1565 221.767 36.0811L222.98 34.6689L225.221 33.525L224.657 32.8189L222.303 33.8922L221.105 35.4526C221.03 35.5441 220.995 35.6609 221.005 35.7783C221.016 35.8957 221.072 36.0044 221.161 36.0811Z" fill="#72594B"/>
<path d="M222.888 36.3776C222.965 36.4099 223.051 36.4118 223.13 36.383C223.208 36.3542 223.273 36.2968 223.311 36.2223L224.016 34.8666L225.136 33.9769L224.608 33.4332L223.128 34.5983L222.698 36.0104C222.683 36.0842 222.694 36.1607 222.729 36.2274C222.763 36.2941 222.819 36.347 222.888 36.3776Z" fill="#72594B"/>
<path d="M240.692 3.24095C241.333 4.25066 241.009 5.06972 241.777 7.34332C241.975 7.95299 242.21 8.54963 242.482 9.12972C241.661 9.00289 240.868 8.73031 240.142 8.32478C239.695 8.10441 239.288 7.81089 238.937 7.4563C238.169 6.63723 238.084 5.78993 237.478 5.71932C237.4 5.70506 237.32 5.70777 237.244 5.72726C237.167 5.74676 237.095 5.78259 237.034 5.83229C236.646 6.2277 237.675 7.24447 237.351 8.0141C237.027 8.78374 235.596 8.80492 234.856 8.83316C233.996 8.83316 233.143 8.88965 232.6 8.31066C232.388 8.0182 232.241 7.68303 232.171 7.32828C232.1 6.97354 232.107 6.60767 232.192 6.25595C232.481 4.23654 234.264 1.4828 237.027 1.41219C237.74 1.39702 238.446 1.55551 239.084 1.87406C239.723 2.1926 240.274 2.66167 240.692 3.24095Z" fill="#253858"/>
<path d="M241.376 4.56133C239.83 4.72137 238.258 4.9026 236.66 5.10501C235.063 5.30743 233.536 5.51454 232.079 5.72637C231.938 5.08657 231.932 4.42437 232.061 3.78208C232.19 3.1398 232.452 2.53157 232.829 1.99627C233.206 1.46098 233.69 1.01039 234.251 0.673325C234.812 0.336257 235.437 0.120122 236.086 0.0387359C236.735 -0.0426505 237.394 0.0125023 238.02 0.200669C238.646 0.388835 239.227 0.705875 239.724 1.13152C240.221 1.55717 240.624 2.08206 240.907 2.67263C241.191 3.26321 241.348 3.90648 241.369 4.56133H241.376Z" fill="#FFAB00"/>
<path d="M259.976 20.6954L252.716 25.7722" stroke="#0065FF" stroke-width="2.42" stroke-miterlimit="10" stroke-linecap="round"/>
<path d="M330.868 200.267C322.551 192.423 321.888 186.569 314.551 183.47C306.918 180.25 299.045 183.434 298.41 183.682C291.292 186.661 292.018 191.039 285.97 193.101C277.583 195.925 273.819 188.116 264.579 190.651C257.629 192.557 258.017 195.035 249.206 198.347C234.884 203.734 229.471 195.819 214.049 201.44C209.672 203.035 202.011 206.615 200.066 207.54H340.749C337.177 205.52 333.86 203.078 330.868 200.267Z" fill="url(#paint11_linear_48_1001)"/>
<path d="M298.143 152.896C297.008 158.291 294.16 157.5 292.236 163.41C288.388 175.23 296.74 187.657 300.327 192.981C305.318 200.395 310.139 207.576 316.729 207.307C324.559 206.989 331.791 196.278 332.475 187.064C333.024 179.699 329.113 177.051 331.164 170.824C333.433 163.961 340.326 163.848 340.785 158.559C341.208 153.616 335.47 152.797 333.821 145.849C331.932 137.871 338.402 134.333 335.978 127.675C333.863 121.913 328.45 122.993 326.357 117.161C323.974 110.531 329.965 106.485 327.449 100.293C325.666 95.8937 320.549 93.1894 316.123 92.9846C308.503 92.6316 301.857 99.6219 300.772 105.991C299.63 112.628 305.163 116.808 302.668 121.652C300.461 125.931 295.408 124.123 293.159 128.007C289.579 134.22 300.461 141.924 298.143 152.896Z" fill="#48CC8C"/>
<path d="M316.729 113.807V93.0623L316.116 93.0129C315.848 93.0129 315.58 93.0129 315.319 93.0129V113.489L303.725 99.4665C303.429 99.8619 303.151 100.264 302.893 100.674L315.326 115.707V136.395L302.837 121.285C302.78 121.405 302.731 121.532 302.668 121.652C302.498 121.976 302.297 122.284 302.068 122.57L315.326 138.605V173.253L298.206 152.543C298.206 152.649 298.206 152.762 298.15 152.868C298.051 153.331 297.927 153.789 297.776 154.238L315.326 175.47V205.048L292.363 177.284C292.734 178.578 293.174 179.851 293.681 181.097L315.312 207.222C315.78 207.282 316.251 207.303 316.722 207.286H317.138L332.432 183.985C332.369 183.274 332.265 182.567 332.122 181.867L316.729 205.309V176.141L334.808 148.603C334.553 148.096 334.334 147.573 334.152 147.036L316.729 173.563V139.276L328.838 120.84C328.472 120.527 328.132 120.185 327.823 119.816L316.729 136.706V116.37L327.372 100.166C327.161 99.6744 326.908 99.2019 326.618 98.7534L316.729 113.807Z" fill="#2DB07C"/>
<defs>
<linearGradient id="paint0_linear_48_1001" x1="0" y1="175.434" x2="211.16" y2="175.434" gradientUnits="userSpaceOnUse">
<stop stop-color="#57D9A3"/>
<stop offset="1" stop-color="#00875A"/>
</linearGradient>
<linearGradient id="paint1_linear_48_1001" x1="216.756" y1="188.765" x2="337.857" y2="67.8733" gradientUnits="userSpaceOnUse">
<stop offset="0.5" stop-color="#0065FF"/>
<stop offset="0.57" stop-color="#0468FF"/>
<stop offset="0.65" stop-color="#106FFF"/>
<stop offset="0.73" stop-color="#247CFF"/>
<stop offset="0.8" stop-color="#418DFF"/>
<stop offset="0.88" stop-color="#65A4FF"/>
<stop offset="0.95" stop-color="#92C0FF"/>
<stop offset="1" stop-color="#B2D4FF"/>
</linearGradient>
<linearGradient id="paint2_linear_48_1001" x1="278.739" y1="184.02" x2="340.408" y2="122.468" gradientUnits="userSpaceOnUse">
<stop offset="0.01" stop-color="white" stop-opacity="0.1"/>
<stop offset="0.16" stop-color="white" stop-opacity="0.1"/>
<stop offset="0.23" stop-color="#6C798F" stop-opacity="0.13"/>
<stop offset="0.92" stop-color="#6C798F"/>
</linearGradient>
<linearGradient id="paint3_linear_48_1001" x1="335.745" y1="207.004" x2="335.745" y2="116.773" gradientUnits="userSpaceOnUse">
<stop stop-color="#FFC400"/>
<stop offset="1" stop-color="#FFF0B2"/>
</linearGradient>
<linearGradient id="paint4_linear_48_1001" x1="170.724" y1="73.1789" x2="203.047" y2="73.1789" gradientUnits="userSpaceOnUse">
<stop stop-color="#00875A"/>
<stop offset="1" stop-color="#57D9A3"/>
</linearGradient>
<linearGradient id="paint5_linear_48_1001" x1="177.765" y1="121.278" x2="190.969" y2="108.097" gradientUnits="userSpaceOnUse">
<stop offset="0.27" stop-color="#00875A"/>
<stop offset="0.33" stop-color="#02895C"/>
<stop offset="0.69" stop-color="#048B5D"/>
<stop offset="1" stop-color="#57D9A3"/>
</linearGradient>
<linearGradient id="paint6_linear_48_1001" x1="100.967" y1="137.454" x2="119.123" y2="137.454" gradientUnits="userSpaceOnUse">
<stop offset="0.35" stop-color="#7A869A"/>
<stop offset="1" stop-color="#C1C7D0"/>
</linearGradient>
<linearGradient id="paint7_linear_48_1001" x1="132.191" y1="117.768" x2="119.989" y2="129.948" gradientUnits="userSpaceOnUse">
<stop stop-color="#C1C7D0"/>
<stop offset="0.56" stop-color="#7A869A"/>
</linearGradient>
<linearGradient id="paint8_linear_48_1001" x1="250.01" y1="34.9513" x2="267.99" y2="34.9513" gradientUnits="userSpaceOnUse">
<stop stop-color="#FFC400"/>
<stop offset="0.45" stop-color="#FF991F"/>
</linearGradient>
<linearGradient id="paint9_linear_48_1001" x1="246.472" y1="22.044" x2="251.889" y2="15.833" gradientUnits="userSpaceOnUse">
<stop stop-color="#FFE380"/>
<stop offset="0.3" stop-color="#FFCE50"/>
<stop offset="0.61" stop-color="#FFBB25"/>
<stop offset="0.86" stop-color="#FFAF0A"/>
<stop offset="1" stop-color="#FFAB00"/>
</linearGradient>
<linearGradient id="paint10_linear_48_1001" x1="227.505" y1="21.5004" x2="248.812" y2="21.5004" gradientUnits="userSpaceOnUse">
<stop stop-color="#FFE380"/>
<stop offset="1" stop-color="#FFAB00"/>
</linearGradient>
<linearGradient id="paint11_linear_48_1001" x1="40038.9" y1="7217.15" x2="69178.7" y2="7217.15" gradientUnits="userSpaceOnUse">
<stop stop-color="#57D9A3"/>
<stop offset="1" stop-color="#00875A"/>
</linearGradient>
</defs>
</svg>
