<svg width="36" height="26" viewBox="0 0 36 26" fill="none" xmlns="http://www.w3.org/2000/svg">
<g clip-path="url(#clip0_44_803)">
<path d="M33.4095 25.9746H2.59055C1.90349 25.9746 1.24458 25.7016 0.758754 25.2158C0.272932 24.73 0 24.0711 0 23.384L0 2.59055C0 1.90349 0.272932 1.24458 0.758754 0.758754C1.24458 0.272932 1.90349 0 2.59055 0L33.4095 0C34.0965 0 34.7554 0.272932 35.2412 0.758754C35.7271 1.24458 36 1.90349 36 2.59055V23.384C36 24.0711 35.7271 24.73 35.2412 25.2158C34.7554 25.7016 34.0965 25.9746 33.4095 25.9746ZM2.59055 1.72703C2.36153 1.72703 2.14189 1.81801 1.97995 1.97995C1.81801 2.14189 1.72703 2.36153 1.72703 2.59055V23.384C1.72703 23.613 1.81801 23.8327 1.97995 23.9946C2.14189 24.1566 2.36153 24.2475 2.59055 24.2475H33.4095C33.6385 24.2475 33.8581 24.1566 34.0201 23.9946C34.182 23.8327 34.273 23.613 34.273 23.384V2.59055C34.273 2.36153 34.182 2.14189 34.0201 1.97995C33.8581 1.81801 33.6385 1.72703 33.4095 1.72703H2.59055Z" fill="#1856F2"/>
<path d="M35.1365 10.1204H0.941275C0.712256 10.1204 0.492618 10.0294 0.330677 9.86749C0.168736 9.70555 0.0777588 9.48591 0.0777588 9.25689V5.68193C0.0777588 5.45291 0.168736 5.23327 0.330677 5.07133C0.492618 4.90939 0.712256 4.81841 0.941275 4.81841H35.1365C35.3655 4.81841 35.5852 4.90939 35.7471 5.07133C35.9091 5.23327 36 5.45291 36 5.68193V9.25689C36 9.48591 35.9091 9.70555 35.7471 9.86749C35.5852 10.0294 35.3655 10.1204 35.1365 10.1204ZM1.80479 8.39337H34.273V6.54545H1.80479V8.39337Z" fill="#1856F2"/>
<g opacity="0.4">
<path opacity="0.7" d="M12.8318 14.887C12.4074 14.8893 11.988 14.9795 11.6001 15.1519C11.2122 15.3243 10.8642 15.5752 10.5781 15.8887C10.1606 15.4337 9.61541 15.1154 9.01395 14.9754C8.41249 14.8355 7.78279 14.8804 7.20732 15.1044C6.63185 15.3284 6.13745 15.721 5.78887 16.2308C5.44029 16.7405 5.25378 17.3436 5.25378 17.9611C5.25378 18.5787 5.44029 19.1818 5.78887 19.6915C6.13745 20.2013 6.63185 20.5938 7.20732 20.8178C7.78279 21.0418 8.41249 21.0868 9.01395 20.9469C9.61541 20.8069 10.1606 20.4886 10.5781 20.0336C10.9271 20.3995 11.3612 20.6734 11.8418 20.8308C12.3223 20.9883 12.8343 21.0244 13.3322 20.936C13.8301 20.8476 14.2984 20.6374 14.6954 20.3241C15.0923 20.0109 15.4056 19.6043 15.6073 19.1406C15.809 18.6769 15.8929 18.1704 15.8515 17.6665C15.81 17.1625 15.6445 16.6766 15.3697 16.2521C15.095 15.8276 14.7195 15.4776 14.2766 15.2334C13.8338 14.9892 13.3375 14.8584 12.8318 14.8525V14.887Z" fill="#1856F2"/>
</g>
<g opacity="0.4">
<path opacity="0.7" d="M20.3703 17.8748C21.2338 17.7366 22.0542 17.6416 22.8918 17.5294C23.7294 17.4171 24.5756 17.3394 25.4219 17.2703C26.2522 17.1101 27.099 17.0521 27.9433 17.0976C28.8295 17.1883 29.6892 17.4524 30.4735 17.8748C30.4904 17.8938 30.4998 17.9184 30.4998 17.9439C30.4998 17.9693 30.4904 17.9939 30.4735 18.0129C29.6892 18.4353 28.8295 18.6994 27.9433 18.7901C27.099 18.8316 26.2527 18.7736 25.4219 18.6174C24.5584 18.5483 23.6948 18.462 22.8918 18.3583C22.0887 18.2547 21.1647 18.1511 20.3703 18.0129C20.3589 18.0109 20.3479 18.0065 20.3382 18.0002C20.3285 17.9938 20.3201 17.9855 20.3137 17.9758C20.3072 17.9662 20.3028 17.9553 20.3007 17.9439C20.2985 17.9324 20.2987 17.9207 20.3012 17.9093C20.3012 17.9093 20.3358 17.8834 20.3703 17.8748Z" fill="#1856F2"/>
</g>
</g>
<defs>
<clipPath id="clip0_44_803">
<rect width="36" height="25.9746" fill="white"/>
</clipPath>
</defs>
</svg>
