<svg width="34" height="19" viewBox="0 0 34 19" fill="none" xmlns="http://www.w3.org/2000/svg">
<path d="M0.776 18V1.2H5.936C8.896 1.2 11.072 1.952 12.464 3.456C13.872 4.96 14.576 7.024 14.576 9.648C14.576 12.224 13.872 14.264 12.464 15.768C11.072 17.256 8.896 18 5.936 18H0.776ZM2.792 16.32H5.888C7.52 16.32 8.816 16.056 9.776 15.528C10.752 14.984 11.448 14.216 11.864 13.224C12.28 12.216 12.488 11.024 12.488 9.648C12.488 8.24 12.28 7.032 11.864 6.024C11.448 5.016 10.752 4.24 9.776 3.696C8.816 3.152 7.52 2.88 5.888 2.88H2.792V16.32ZM25.1189 18.288C23.4709 18.288 22.0229 17.928 20.7749 17.208C19.5429 16.472 18.5749 15.448 17.8709 14.136C17.1829 12.824 16.8389 11.312 16.8389 9.6C16.8389 7.888 17.1829 6.384 17.8709 5.088C18.5749 3.776 19.5429 2.752 20.7749 2.016C22.0229 1.28 23.4709 0.912 25.1189 0.912C26.7829 0.912 28.2309 1.28 29.4629 2.016C30.7109 2.752 31.6789 3.776 32.3669 5.088C33.0549 6.384 33.3989 7.888 33.3989 9.6C33.3989 11.312 33.0549 12.824 32.3669 14.136C31.6789 15.448 30.7109 16.472 29.4629 17.208C28.2309 17.928 26.7829 18.288 25.1189 18.288ZM25.1189 16.512C26.3509 16.512 27.4309 16.24 28.3589 15.696C29.3029 15.136 30.0309 14.344 30.5429 13.32C31.0709 12.28 31.3349 11.04 31.3349 9.6C31.3349 8.16 31.0709 6.928 30.5429 5.904C30.0309 4.88 29.3029 4.096 28.3589 3.552C27.4309 2.992 26.3509 2.712 25.1189 2.712C23.8869 2.712 22.7989 2.992 21.8549 3.552C20.9269 4.096 20.1989 4.88 19.6709 5.904C19.1589 6.928 18.9029 8.16 18.9029 9.6C18.9029 11.04 19.1589 12.28 19.6709 13.32C20.1989 14.344 20.9269 15.136 21.8549 15.696C22.7989 16.24 23.8869 16.512 25.1189 16.512Z" fill="white"/>
</svg>
