<svg width="22" height="4" viewBox="0 0 22 4" fill="none" xmlns="http://www.w3.org/2000/svg">
<path d="M10.9999 3.71428C11.9467 3.71428 12.7142 2.94676 12.7142 1.99999C12.7142 1.05322 11.9467 0.285706 10.9999 0.285706C10.0532 0.285706 9.28564 1.05322 9.28564 1.99999C9.28564 2.94676 10.0532 3.71428 10.9999 3.71428Z" fill="#636060"/>
<path d="M2.42852 3.71428C3.37529 3.71428 4.14281 2.94676 4.14281 1.99999C4.14281 1.05322 3.37529 0.285706 2.42852 0.285706C1.48175 0.285706 0.714233 1.05322 0.714233 1.99999C0.714233 2.94676 1.48175 3.71428 2.42852 3.71428Z" fill="#636060"/>
<path d="M19.5713 3.71428C20.5181 3.71428 21.2856 2.94676 21.2856 1.99999C21.2856 1.05322 20.5181 0.285706 19.5713 0.285706C18.6246 0.285706 17.8571 1.05322 17.8571 1.99999C17.8571 2.94676 18.6246 3.71428 19.5713 3.71428Z" fill="#636060"/>
</svg>
