<svg width="36" height="36" viewBox="0 0 36 36" fill="none" xmlns="http://www.w3.org/2000/svg">
<path fill-rule="evenodd" clip-rule="evenodd" d="M5.40015 8.99998C5.40015 8.52259 5.58979 8.06476 5.92735 7.72719C6.26492 7.38962 6.72276 7.19998 7.20015 7.19998H28.8001C29.2775 7.19998 29.7354 7.38962 30.0729 7.72719C30.4105 8.06476 30.6001 8.52259 30.6001 8.99998C30.6001 9.47737 30.4105 9.93521 30.0729 10.2728C29.7354 10.6103 29.2775 10.8 28.8001 10.8H7.20015C6.72276 10.8 6.26492 10.6103 5.92735 10.2728C5.58979 9.93521 5.40015 9.47737 5.40015 8.99998Z" fill="#636060"/>
<path fill-rule="evenodd" clip-rule="evenodd" d="M5.40015 18C5.40015 17.5226 5.58979 17.0648 5.92735 16.7272C6.26492 16.3896 6.72276 16.2 7.20015 16.2H18.0001C18.4775 16.2 18.9354 16.3896 19.2729 16.7272C19.6105 17.0648 19.8001 17.5226 19.8001 18C19.8001 18.4774 19.6105 18.9352 19.2729 19.2728C18.9354 19.6103 18.4775 19.8 18.0001 19.8H7.20015C6.72276 19.8 6.26492 19.6103 5.92735 19.2728C5.58979 18.9352 5.40015 18.4774 5.40015 18Z" fill="#636060"/>
<path fill-rule="evenodd" clip-rule="evenodd" d="M5.40015 27C5.40015 26.5226 5.58979 26.0648 5.92735 25.7272C6.26492 25.3896 6.72276 25.2 7.20015 25.2H28.8001C29.2775 25.2 29.7354 25.3896 30.0729 25.7272C30.4105 26.0648 30.6001 26.5226 30.6001 27C30.6001 27.4774 30.4105 27.9352 30.0729 28.2728C29.7354 28.6103 29.2775 28.8 28.8001 28.8H7.20015C6.72276 28.8 6.26492 28.6103 5.92735 28.2728C5.58979 27.9352 5.40015 27.4774 5.40015 27Z" fill="#636060"/>
</svg>
