<svg width="36" height="30" viewBox="0 0 36 30" fill="none" xmlns="http://www.w3.org/2000/svg">
<path d="M29.4466 6.25784H5.5625C5.33199 6.25784 5.11092 6.34941 4.94793 6.51241C4.78493 6.67541 4.69336 6.89648 4.69336 7.12699V11.4727C4.69336 11.7032 4.78493 11.9243 4.94793 12.0873C5.11092 12.2503 5.33199 12.3419 5.5625 12.3419H8.69143V10.6036H6.43165V7.99613H8.69143V7.12699H26.9435V7.99613H28.5775V10.6036H26.9435V12.3419H29.4466C29.6771 12.3419 29.8982 12.2503 30.0612 12.0873C30.2242 11.9243 30.3158 11.7032 30.3158 11.4727V7.12699C30.3158 6.89648 30.2242 6.67541 30.0612 6.51241C29.8982 6.34941 29.6771 6.25784 29.4466 6.25784Z" fill="#0065FF"/>
<path d="M33.3926 0H2.60744C1.9159 0 1.25269 0.274711 0.7637 0.7637C0.274711 1.25269 0 1.9159 0 2.60744L0 16.5138C0 17.2053 0.274711 17.8685 0.7637 18.3575C1.25269 18.8465 1.9159 19.1212 2.60744 19.1212H8.69145V17.3829H2.60744C2.37692 17.3829 2.15585 17.2913 1.99286 17.1283C1.82986 16.9653 1.73829 16.7443 1.73829 16.5138V2.60744C1.73829 2.37692 1.82986 2.15585 1.99286 1.99286C2.15585 1.82986 2.37692 1.73829 2.60744 1.73829H33.3926C33.6231 1.73829 33.8441 1.82986 34.0071 1.99286C34.1701 2.15585 34.2617 2.37692 34.2617 2.60744V16.5138C34.2617 16.7443 34.1701 16.9653 34.0071 17.1283C33.8441 17.2913 33.6231 17.3829 33.3926 17.3829H26.9435V19.1212H33.3926C34.0841 19.1212 34.7473 18.8465 35.2363 18.3575C35.7253 17.8685 36 17.2053 36 16.5138V2.60744C36 1.9159 35.7253 1.25269 35.2363 0.7637C34.7473 0.274711 34.0841 0 33.3926 0V0Z" fill="#0065FF"/>
<path d="M26.9435 29.5509H8.69141C8.4609 29.5509 8.23983 29.4594 8.07683 29.2964C7.91384 29.1334 7.82227 28.9123 7.82227 28.6818V7.12699C7.82227 6.89648 7.91384 6.67541 8.07683 6.51241C8.23983 6.34941 8.4609 6.25784 8.69141 6.25784C8.92192 6.25784 9.14299 6.34941 9.30599 6.51241C9.46899 6.67541 9.56056 6.89648 9.56056 7.12699V27.8126H26.0743V7.12699C26.0743 6.89648 26.1659 6.67541 26.3289 6.51241C26.4919 6.34941 26.7129 6.25784 26.9435 6.25784C27.174 6.25784 27.395 6.34941 27.558 6.51241C27.721 6.67541 27.8126 6.89648 27.8126 7.12699V28.6818C27.8126 28.9123 27.721 29.1334 27.558 29.2964C27.395 29.4594 27.174 29.5509 26.9435 29.5509Z" fill="#0065FF"/>
<g opacity="0.4">
<path opacity="0.7" d="M17.7653 22.424C17.8826 22.4157 17.997 22.3837 18.1016 22.3299C18.2061 22.2761 18.2987 22.2017 18.3737 22.1111L21.8937 20.0773C21.9976 20.0229 22.0894 19.9481 22.1636 19.8574C22.2378 19.7667 22.2929 19.6619 22.3256 19.5493C22.3582 19.4367 22.3678 19.3187 22.3536 19.2023C22.3395 19.086 22.302 18.9737 22.2433 18.8722C22.1847 18.7707 22.1061 18.6821 22.0123 18.6118C21.9185 18.5415 21.8115 18.4908 21.6976 18.4629C21.5838 18.435 21.4654 18.4305 21.3498 18.4495C21.2341 18.4685 21.1235 18.5108 21.0246 18.5736L18.4693 20.0512L17.7044 9.2564L16.9483 19.9034L15.0362 18.5736C14.9427 18.5069 14.837 18.4594 14.7251 18.4338C14.6133 18.4082 14.4974 18.405 14.3843 18.4244C14.2711 18.4438 14.163 18.4854 14.066 18.5468C13.9691 18.6082 13.8852 18.6882 13.8193 18.7822C13.7193 18.931 13.6677 19.1071 13.6716 19.2863C13.6708 19.4257 13.7036 19.5632 13.7672 19.6872C13.8307 19.8113 13.9231 19.9182 14.0366 19.999L17.0352 22.085C17.1205 22.1962 17.2315 22.2851 17.3586 22.3441C17.4858 22.4031 17.6253 22.4305 17.7653 22.424Z" fill="#0065FF"/>
</g>
<path d="M26.9435 25.0835H8.69141C8.57615 25.0835 8.46562 25.0377 8.38412 24.9562C8.30262 24.8748 8.25684 24.7642 8.25684 24.649C8.25684 24.5337 8.30262 24.4232 8.38412 24.3417C8.46562 24.2602 8.57615 24.2144 8.69141 24.2144H26.9435C27.0587 24.2144 27.1693 24.2602 27.2508 24.3417C27.3323 24.4232 27.378 24.5337 27.378 24.649C27.378 24.7642 27.3323 24.8748 27.2508 24.9562C27.1693 25.0377 27.0587 25.0835 26.9435 25.0835Z" fill="#0065FF"/>
<path d="M26.9435 26.9435H8.69141C8.57615 26.9435 8.46562 26.8977 8.38412 26.8162C8.30262 26.7347 8.25684 26.6242 8.25684 26.5089C8.25684 26.3937 8.30262 26.2831 8.38412 26.2016C8.46562 26.1201 8.57615 26.0744 8.69141 26.0744H26.9435C27.0587 26.0744 27.1693 26.1201 27.2508 26.2016C27.3323 26.2831 27.378 26.3937 27.378 26.5089C27.378 26.6242 27.3323 26.7347 27.2508 26.8162C27.1693 26.8977 27.0587 26.9435 26.9435 26.9435Z" fill="#0065FF"/>
</svg>
