<svg width="24" height="24" viewBox="0 0 24 24" fill="none" xmlns="http://www.w3.org/2000/svg">
<path d="M17.6135 15.5151C19.0659 13.5331 19.7165 11.0758 19.4349 8.63481C19.1534 6.1938 17.9606 3.94909 16.0951 2.34978C14.2297 0.750464 11.8291 -0.085512 9.37375 0.0090977C6.91838 0.103707 4.58927 1.12193 2.85239 2.86004C1.11552 4.59816 0.098968 6.928 0.00611531 9.38343C-0.0867374 11.8389 0.750956 14.2388 2.3516 16.1031C3.95225 17.9675 6.19781 19.1587 8.63902 19.4385C11.0802 19.7182 13.5371 19.0659 15.518 17.6121H15.5165C15.5615 17.6721 15.6095 17.7291 15.6635 17.7846L21.4385 23.5596C21.7198 23.841 22.1013 23.9992 22.4992 23.9994C22.8971 23.9995 23.2788 23.8416 23.5602 23.5603C23.8417 23.2791 23.9999 22.8975 24 22.4996C24.0002 22.1017 23.8423 21.72 23.561 21.4386L17.786 15.6636C17.7324 15.6093 17.6747 15.5592 17.6135 15.5136V15.5151ZM18.0005 9.74908C18.0005 10.8325 17.7871 11.9053 17.3725 12.9062C16.9579 13.9072 16.3502 14.8166 15.5841 15.5827C14.818 16.3488 13.9086 16.9565 12.9076 17.3711C11.9067 17.7857 10.8339 17.9991 9.75049 17.9991C8.66709 17.9991 7.59429 17.7857 6.59335 17.3711C5.59242 16.9565 4.68294 16.3488 3.91686 15.5827C3.15078 14.8166 2.54309 13.9072 2.12849 12.9062C1.71388 11.9053 1.50049 10.8325 1.50049 9.74908C1.50049 7.56105 2.36969 5.46263 3.91686 3.91545C5.46404 2.36828 7.56246 1.49908 9.75049 1.49908C11.9385 1.49908 14.0369 2.36828 15.5841 3.91545C17.1313 5.46263 18.0005 7.56105 18.0005 9.74908Z" fill="#636060"/>
</svg>
