<svg width="24" height="24" viewBox="0 0 24 24" fill="none" xmlns="http://www.w3.org/2000/svg">
<g clip-path="url(#clip0_63_1078)">
<path d="M7.56826 24C7.49252 24.0004 7.41743 23.9859 7.34731 23.9573C7.27719 23.9286 7.21341 23.8864 7.15963 23.8331L0.166826 16.8403C0.112881 16.7868 0.0700644 16.7231 0.040845 16.653C0.0116256 16.5829 -0.00341797 16.5076 -0.00341797 16.4317C-0.00341797 16.3557 0.0116256 16.2804 0.040845 16.2103C0.0700644 16.1402 0.112881 16.0765 0.166826 16.023L7.15963 9.03021C7.21314 8.97627 7.27679 8.93345 7.34693 8.90423C7.41706 8.87501 7.49229 8.85997 7.56826 8.85997C7.64424 8.85997 7.71947 8.87501 7.7896 8.90423C7.85974 8.93345 7.92339 8.97627 7.9769 9.03021L8.9956 10.0489C9.04927 10.1026 9.09183 10.1663 9.12088 10.2364C9.14992 10.3065 9.16486 10.3817 9.16486 10.4576C9.16486 10.5334 9.14992 10.6086 9.12088 10.6787C9.09183 10.7488 9.04927 10.8125 8.9956 10.8662C8.94194 10.9198 8.87823 10.9624 8.80812 10.9915C8.73801 11.0205 8.66286 11.0354 8.58697 11.0354C8.51108 11.0354 8.43593 11.0205 8.36582 10.9915C8.29571 10.9624 8.232 10.9198 8.17834 10.8662L7.56826 10.2504L1.38697 16.4317L7.56826 22.6129L13.7496 16.4317L13.1107 15.7986C13 15.6902 12.937 15.5423 12.9353 15.3874C12.9337 15.2325 12.9937 15.0833 13.1021 14.9727C13.2105 14.862 13.3584 14.7989 13.5132 14.7973C13.6681 14.7957 13.8173 14.8557 13.928 14.964L14.9639 16.023C15.0173 16.0768 15.0595 16.1406 15.0881 16.2107C15.1168 16.2808 15.1313 16.3559 15.1309 16.4317C15.1313 16.5074 15.1168 16.5825 15.0881 16.6526C15.0595 16.7227 15.0173 16.7865 14.9639 16.8403L7.9769 23.8331C7.92312 23.8864 7.85934 23.9286 7.78922 23.9573C7.7191 23.9859 7.64401 24.0004 7.56826 24Z" fill="#636060"/>
<path d="M16.4317 15.1367C16.2807 15.1361 16.136 15.0761 16.0288 14.9698L14.8778 13.8187C14.7694 13.7103 14.7085 13.5633 14.7085 13.4101C14.7085 13.2568 14.7694 13.1098 14.8778 13.0014C14.9861 12.8931 15.1331 12.8322 15.2864 12.8322C15.4397 12.8322 15.5867 12.8931 15.695 13.0014L16.426 13.7381L22.613 7.56834L16.4317 1.38705L10.2562 7.56834L10.9353 8.23021C10.9956 8.28181 11.0445 8.3453 11.079 8.41671C11.1136 8.48811 11.133 8.56588 11.1361 8.64515C11.1391 8.72441 11.1258 8.80345 11.0968 8.87731C11.0679 8.95116 11.024 9.01824 10.9679 9.07433C10.9118 9.13042 10.8448 9.17431 10.7709 9.20324C10.697 9.23218 10.618 9.24553 10.5387 9.24247C10.4595 9.23941 10.3817 9.22 10.3103 9.18545C10.2389 9.15091 10.1754 9.10197 10.1238 9.04173L9.0533 7.97698C8.99936 7.92347 8.95654 7.85982 8.92732 7.78968C8.8981 7.71955 8.88306 7.64432 8.88306 7.56834C8.88306 7.49237 8.8981 7.41714 8.92732 7.347C8.95654 7.27687 8.99936 7.21321 9.0533 7.15971L16.0288 0.166905C16.1367 0.0597101 16.2825 -0.000457764 16.4346 -0.000457764C16.5866 -0.000457764 16.7325 0.0597101 16.8404 0.166905L23.8332 7.15971C23.8871 7.21321 23.9299 7.27687 23.9591 7.347C23.9884 7.41714 24.0034 7.49237 24.0034 7.56834C24.0034 7.64432 23.9884 7.71955 23.9591 7.78968C23.9299 7.85982 23.8871 7.92347 23.8332 7.97698L16.8404 14.964C16.787 15.0184 16.7235 15.0617 16.6533 15.0913C16.5832 15.1209 16.5079 15.1364 16.4317 15.1367Z" fill="#636060"/>
<g opacity="0.4">
<path opacity="0.7" d="M15.8742 5.95717L6.16797 15.6634L7.88944 17.3848L17.5956 7.67865L15.8742 5.95717Z" fill="#636060"/>
</g>
</g>
<defs>
<clipPath id="clip0_63_1078">
<rect width="24" height="24" fill="white"/>
</clipPath>
</defs>
</svg>
