<svg width="222" height="178" viewBox="0 0 222 178" fill="none" xmlns="http://www.w3.org/2000/svg">
<rect x="4" width="218" height="169.5" rx="10" fill="#0065FF"/>
<mask id="mask0_63_1118" style="mask-type:alpha" maskUnits="userSpaceOnUse" x="0" y="0" width="218" height="170">
<path d="M0 15C0 6.71572 6.71573 0 15 0H203C211.284 0 218 6.71573 218 15V154.5C218 162.784 211.284 169.5 203 169.5H15C6.71573 169.5 0 162.784 0 154.5V15Z" fill="#F2994A"/>
</mask>
<g mask="url(#mask0_63_1118)">
<g opacity="0.2">
<circle cx="224.25" cy="169.25" r="177.25" stroke="white"/>
<circle cx="224.25" cy="169.25" r="153.219" stroke="white"/>
<circle cx="224.25" cy="169.25" r="125.872" stroke="white"/>
<circle cx="224.25" cy="169.25" r="98.5262" stroke="white"/>
<circle cx="224.25" cy="169.25" r="72.0087" stroke="white"/>
<circle cx="224.25" cy="169.25" r="47.9773" stroke="white"/>
<circle cx="224.25" cy="169.25" r="28.75" stroke="white"/>
</g>
</g>
<rect x="20.5" y="16" width="35" height="35" rx="12" fill="white"/>
<path d="M38 24.5C33.0312 24.5 29 28.5312 29 33.5C29 38.4687 33.0312 42.5 38 42.5C42.9687 42.5 47 38.4687 47 33.5C47 28.5312 42.9687 24.5 38 24.5ZM37.7187 38.75C37.5333 38.75 37.3521 38.695 37.1979 38.592C37.0437 38.489 36.9236 38.3426 36.8526 38.1712C36.7817 37.9999 36.7631 37.8114 36.7993 37.6296C36.8354 37.4477 36.9247 37.2807 37.0558 37.1496C37.1869 37.0185 37.354 36.9292 37.5359 36.893C37.7177 36.8568 37.9062 36.8754 38.0775 36.9463C38.2488 37.0173 38.3952 37.1375 38.4983 37.2916C38.6013 37.4458 38.6562 37.6271 38.6562 37.8125C38.6562 38.0611 38.5575 38.2996 38.3817 38.4754C38.2058 38.6512 37.9674 38.75 37.7187 38.75ZM39.2862 33.9687C38.5264 34.4787 38.4219 34.9461 38.4219 35.375C38.4219 35.549 38.3527 35.716 38.2297 35.839C38.1066 35.9621 37.9397 36.0312 37.7656 36.0312C37.5916 36.0312 37.4247 35.9621 37.3016 35.839C37.1785 35.716 37.1094 35.549 37.1094 35.375C37.1094 34.348 37.5819 33.5314 38.5541 32.8784C39.4578 32.2719 39.9687 31.8875 39.9687 31.0423C39.9687 30.4676 39.6406 30.0312 38.9614 29.7083C38.8016 29.6323 38.4458 29.5583 38.008 29.5634C37.4586 29.5705 37.032 29.7017 36.7034 29.9661C36.0837 30.4648 36.0312 31.0076 36.0312 31.0156C36.0271 31.1018 36.006 31.1863 35.9692 31.2643C35.9324 31.3424 35.8805 31.4124 35.8167 31.4704C35.7528 31.5284 35.6781 31.5732 35.5969 31.6024C35.5157 31.6315 35.4295 31.6444 35.3434 31.6402C35.2572 31.6361 35.1727 31.615 35.0946 31.5782C35.0166 31.5413 34.9466 31.4895 34.8886 31.4256C34.8306 31.3618 34.7857 31.2871 34.7566 31.2059C34.7275 31.1247 34.7146 31.0385 34.7187 30.9523C34.7239 30.8384 34.8031 29.8123 35.8798 28.9461C36.4381 28.497 37.1483 28.2636 37.9892 28.2533C38.5845 28.2462 39.1437 28.347 39.523 28.5261C40.6578 29.0628 41.2812 29.9576 41.2812 31.0423C41.2812 32.6281 40.2214 33.3401 39.2862 33.9687Z" fill="#4FD1C5"/>
</svg>
