<svg width="24" height="21" viewBox="0 0 24 21" fill="none" xmlns="http://www.w3.org/2000/svg">
<g clip-path="url(#clip0_63_1079)">
<path d="M18.0365 7.52274C17.9396 7.42651 17.809 7.37206 17.6724 7.37107C17.6057 7.37103 17.5395 7.38444 17.478 7.41049C17.4166 7.43655 17.3609 7.47473 17.3145 7.52274C17.2668 7.56937 17.2288 7.62503 17.2027 7.68648C17.1767 7.74793 17.1631 7.81394 17.1628 7.88068C17.1628 7.9476 17.176 8.01387 17.2016 8.07569C17.2272 8.13752 17.2648 8.1937 17.3121 8.24102C17.3594 8.28834 17.4156 8.32588 17.4774 8.35149C17.5393 8.3771 17.6055 8.39028 17.6724 8.39028C17.7408 8.39446 17.8093 8.38449 17.8736 8.36099C17.9379 8.33748 17.9967 8.30095 18.0462 8.25368C18.0958 8.20641 18.135 8.14943 18.1615 8.08629C18.188 8.02315 18.2012 7.95521 18.2003 7.88674C18.1954 7.74864 18.1366 7.61795 18.0365 7.52274Z" fill="#636060"/>
<path d="M17.363 20.36H14.7786C14.3173 20.3584 13.8754 20.1744 13.5492 19.8482C13.223 19.522 13.0391 19.0801 13.0375 18.6188C13.0375 18.5495 13.0238 18.4809 12.9973 18.4168C12.9708 18.3528 12.9319 18.2946 12.8829 18.2456C12.8339 18.1966 12.7757 18.1577 12.7116 18.1312C12.6476 18.1047 12.579 18.091 12.5097 18.091H10.3499C10.2099 18.091 10.0757 18.1466 9.97669 18.2456C9.8777 18.3446 9.82209 18.4788 9.82209 18.6188C9.8221 19.0795 9.63949 19.5215 9.31427 19.8478C8.98905 20.1742 8.54774 20.3584 8.08701 20.36H5.41765C4.95636 20.3584 4.51442 20.1744 4.18823 19.8482C3.86205 19.522 3.67809 19.0801 3.67649 18.6188V16.7988C2.87739 16.0957 2.16095 15.304 1.541 14.4388C0.680283 13.2192 0.159749 11.7925 0.0328723 10.3051C-0.0940044 8.8178 0.17735 7.3235 0.819062 5.97573C3.24576 0.94034 9.23362 1.62588 9.31249 1.63195C9.39216 1.64191 9.46909 1.66746 9.53888 1.70715C9.60867 1.74684 9.66997 1.79988 9.71926 1.86326C9.76855 1.92664 9.80488 1.9991 9.82617 2.07652C9.84746 2.15393 9.85329 2.23479 9.84333 2.31446C9.83337 2.39412 9.80782 2.47105 9.76813 2.54085C9.72844 2.61064 9.67539 2.67193 9.61201 2.72123C9.54864 2.77052 9.47617 2.80685 9.39876 2.82813C9.32134 2.84942 9.24049 2.85525 9.16082 2.84529C8.94848 2.84529 3.9859 2.26895 1.92927 6.48534C1.37876 7.63696 1.14479 8.9144 1.25141 10.1864C1.35803 11.4584 1.8014 12.679 2.53595 13.723C3.14892 14.5829 3.86851 15.3616 4.6775 16.0404C4.7441 16.0974 4.79756 16.1681 4.83421 16.2477C4.87087 16.3273 4.88985 16.4139 4.88984 16.5015V18.6006C4.88984 18.7406 4.94545 18.8748 5.04443 18.9738C5.14341 19.0728 5.27766 19.1284 5.41765 19.1284H8.08701C8.22594 19.1268 8.35863 19.0705 8.45631 18.9717C8.55398 18.8729 8.60876 18.7395 8.60875 18.6006C8.61035 18.1393 8.7943 17.6974 9.12049 17.3712C9.44667 17.045 9.88861 16.8611 10.3499 16.8595H12.5097C12.9709 16.8611 13.4129 17.045 13.7391 17.3712C14.0653 17.6974 14.2492 18.1393 14.2508 18.6006C14.2508 18.7406 14.3064 18.8748 14.4054 18.9738C14.5044 19.0728 14.6386 19.1284 14.7786 19.1284H17.363C17.503 19.1284 17.6373 19.0728 17.7363 18.9738C17.8352 18.8748 17.8909 18.7406 17.8909 18.6006V15.6886C17.8907 15.5994 17.9102 15.5114 17.9479 15.4306C17.9857 15.3499 18.0408 15.2785 18.1093 15.2214C18.1093 15.2214 19.9293 13.6683 20.3297 12.0728C20.3617 11.9371 20.4395 11.8165 20.55 11.7314C20.6605 11.6463 20.7969 11.6019 20.9363 11.6057H22.1133C22.2925 11.6009 22.4629 11.5268 22.5885 11.3989C22.7141 11.2711 22.7852 11.0994 22.7867 10.9201V8.97876C22.7851 8.79639 22.7115 8.62203 22.582 8.49364C22.4525 8.36525 22.2775 8.29322 22.0951 8.29322H21.1487C21.0109 8.29758 20.8758 8.25489 20.7655 8.17219C20.6552 8.08949 20.5764 7.9717 20.542 7.83822C20.137 6.56684 19.3873 5.43271 18.3762 4.56196C17.3652 3.6912 16.1324 3.11796 14.815 2.90596C14.6541 2.877 14.5113 2.78531 14.418 2.65105C14.3247 2.5168 14.2886 2.35099 14.3175 2.19009C14.3465 2.02919 14.4382 1.88638 14.5725 1.79309C14.7067 1.69979 14.8725 1.66365 15.0334 1.69261C16.4986 1.93128 17.8746 2.55303 19.0221 3.49485C20.1695 4.43667 21.0476 5.66509 21.5673 7.05561H22.0769C22.5811 7.05561 23.0647 7.25547 23.4218 7.61141C23.7788 7.96735 23.9802 8.45032 23.9818 8.9545V10.9201C23.9803 11.4249 23.779 11.9085 23.4221 12.2654C23.0652 12.6223 22.5816 12.8235 22.0769 12.8251H21.3489C20.837 14.0275 20.0641 15.1009 19.086 15.9676V18.6067C19.0876 19.0669 18.9076 19.5093 18.585 19.8376C18.2624 20.1658 17.8233 20.3536 17.363 20.36Z" fill="#636060"/>
<path d="M19.0497 4.96259H18.9162C18.7607 4.92771 18.6252 4.83307 18.539 4.69913C18.4527 4.56518 18.4226 4.40268 18.4551 4.24671L19.0618 1.42568C18.3696 1.78761 17.8437 2.40259 17.5936 3.14257C17.5705 3.21905 17.5326 3.29023 17.482 3.35205C17.4314 3.41387 17.3691 3.46511 17.2987 3.50286C17.2282 3.5406 17.1511 3.56411 17.0716 3.57203C16.9921 3.57995 16.9118 3.57214 16.8353 3.54904C16.7588 3.52593 16.6876 3.48799 16.6258 3.43738C16.564 3.38676 16.5127 3.32447 16.475 3.25405C16.4373 3.18363 16.4138 3.10647 16.4058 3.02696C16.3979 2.94746 16.4057 2.86718 16.4288 2.79069C16.4531 2.68149 17.2418 0.151666 19.8383 -2.63052e-06C19.932 -0.00550253 20.0257 0.0108114 20.112 0.0476561C20.1984 0.0845007 20.275 0.140871 20.3358 0.212333C20.3967 0.283153 20.4405 0.367083 20.4636 0.457581C20.4868 0.548079 20.4887 0.642701 20.4693 0.734072L19.6442 4.48938C19.6138 4.62417 19.5383 4.74455 19.4302 4.83059C19.3221 4.91664 19.1878 4.96321 19.0497 4.96259Z" fill="#636060"/>
<g opacity="0.4">
<path opacity="0.4" d="M2.85752 9.85237C2.92926 10.3247 3.06818 10.7844 3.27006 11.2174C3.46151 11.6517 3.70824 12.0596 4.00413 12.4307C4.28821 12.7775 4.61659 13.0855 4.98087 13.3468C5.33674 13.617 5.71884 13.8507 6.12142 14.0445C6.27025 14.1153 6.38487 14.2423 6.44005 14.3976C6.49523 14.5529 6.48645 14.7238 6.41566 14.8726C6.34486 15.0214 6.21784 15.136 6.06254 15.1912C5.90724 15.2464 5.73638 15.2376 5.58755 15.1668L5.46015 15.0698C5.04979 14.7519 4.67182 14.3942 4.33173 14.002C4.00254 13.6169 3.72141 13.1931 3.49452 12.7401C3.26409 12.2909 3.0928 11.8137 2.98492 11.3205C2.86926 10.8403 2.82632 10.3454 2.85752 9.85237Z" fill="#636060"/>
</g>
<g opacity="0.4">
<path opacity="0.4" d="M12.1335 6.72194C11.6716 6.72194 11.22 6.58495 10.8359 6.3283C10.4518 6.07165 10.1524 5.70687 9.97565 5.28008C9.79886 4.85328 9.75261 4.38366 9.84273 3.93058C9.93286 3.4775 10.1553 3.06131 10.482 2.73466C10.8086 2.40801 11.2248 2.18556 11.6779 2.09543C12.131 2.00531 12.6006 2.05156 13.0274 2.22835C13.4542 2.40513 13.819 2.7045 14.0756 3.0886C14.3323 3.47271 14.4692 3.92429 14.4692 4.38625C14.4676 5.00522 14.221 5.59838 13.7834 6.03606C13.3457 6.47374 12.7525 6.72034 12.1335 6.72194ZM12.1335 3.2639C11.9116 3.2639 11.6946 3.32972 11.51 3.45305C11.3254 3.57637 11.1816 3.75166 11.0966 3.95674C11.0117 4.16182 10.9895 4.38749 11.0328 4.6052C11.0761 4.82292 11.183 5.0229 11.3399 5.17986C11.4969 5.33683 11.6969 5.44372 11.9146 5.48703C12.1323 5.53033 12.358 5.50811 12.563 5.42316C12.7681 5.33821 12.9434 5.19436 13.0667 5.00979C13.1901 4.82522 13.2559 4.60823 13.2559 4.38625C13.2559 4.23886 13.2269 4.09291 13.1705 3.95674C13.1141 3.82057 13.0314 3.69685 12.9272 3.59263C12.8229 3.48841 12.6992 3.40574 12.563 3.34933C12.4269 3.29293 12.2809 3.2639 12.1335 3.2639Z" fill="#636060"/>
</g>
<g opacity="0.4">
<path opacity="0.4" d="M8.37201 6.95854C7.89205 6.95854 7.42288 6.81622 7.02381 6.54957C6.62474 6.28292 6.31371 5.90393 6.13003 5.46051C5.94636 5.01709 5.89831 4.52916 5.99194 4.05843C6.08558 3.58769 6.3167 3.1553 6.65608 2.81592C6.99545 2.47654 7.42785 2.24542 7.89858 2.15179C8.36932 2.05815 8.85724 2.10621 9.30066 2.28988C9.74408 2.47355 10.1231 2.78458 10.3897 3.18365C10.6564 3.58272 10.7987 4.0519 10.7987 4.53185C10.7987 5.17545 10.543 5.79269 10.0879 6.24778C9.63285 6.70288 9.01561 6.95854 8.37201 6.95854ZM8.37201 3.3185C8.13203 3.3185 7.89744 3.38967 7.69791 3.52299C7.49837 3.65631 7.34286 3.84581 7.25102 4.06752C7.15919 4.28923 7.13516 4.5332 7.18197 4.76856C7.22879 5.00393 7.34435 5.22013 7.51404 5.38982C7.68373 5.55951 7.89993 5.67507 8.1353 5.72188C8.37066 5.7687 8.61462 5.74467 8.83633 5.65284C9.05804 5.561 9.24754 5.40548 9.38087 5.20595C9.51419 5.00642 9.58535 4.77183 9.58535 4.53185C9.58615 4.372 9.55536 4.21357 9.49474 4.06566C9.43412 3.91775 9.34487 3.78327 9.23213 3.66996C9.11938 3.55665 8.98535 3.46673 8.83774 3.40537C8.69013 3.34402 8.53186 3.31244 8.37201 3.31244V3.3185Z" fill="#636060"/>
</g>
<path d="M7.28003 6.43074L14.9362 5.82407C15.0971 5.8112 15.2566 5.86277 15.3794 5.96744C15.5023 6.07211 15.5786 6.22131 15.5915 6.38221C15.6043 6.54311 15.5528 6.70253 15.4481 6.82541C15.3434 6.94828 15.1942 7.02454 15.0333 7.03741H14.9362L7.28003 6.43074Z" fill="#636060"/>
</g>
<defs>
<clipPath id="clip0_63_1079">
<rect width="24" height="20.36" fill="white"/>
</clipPath>
</defs>
</svg>
