<svg width="24" height="30" viewBox="0 0 24 30" fill="none" xmlns="http://www.w3.org/2000/svg">
<path d="M12.0916 29.4571C12.0378 29.464 11.9833 29.464 11.9294 29.4571C1.41004 26.9401 -6.27285e-05 15.2996 -6.27285e-05 15.1868C-0.0032343 15.1611 -0.0032343 15.135 -6.27285e-05 15.1093V6.03525C-0.000396421 5.9004 0.0379507 5.76828 0.110431 5.65456C0.182912 5.54084 0.286485 5.45029 0.408868 5.39366L11.7955 0.0634563C11.8892 0.0194348 11.9915 -0.00338745 12.0951 -0.00338745C12.1987 -0.00338745 12.301 0.0194348 12.3948 0.0634563L23.5981 5.40071C23.718 5.45785 23.8194 5.54774 23.8905 5.66001C23.9616 5.77228 23.9996 5.90236 23.9999 6.03525V15.1093C22.8154 27.5676 12.3102 29.4289 12.2044 29.4501L12.0916 29.4571ZM1.41004 15.067C1.5017 15.8566 2.8554 25.7415 12.1127 28.0329C13.3184 27.7861 21.5746 25.7274 22.5616 15.0388V6.47944L12.0916 1.48061L1.41004 6.47944V15.067Z" fill="#636060"/>
<g opacity="0.4">
<path opacity="0.7" d="M11.9858 3.37016V26.6369C14.7034 25.8053 17.0824 24.1236 18.7729 21.8391C20.4634 19.5546 21.3763 16.7879 21.3771 13.9459V7.75558L11.9858 3.37016Z" fill="#636060"/>
</g>
</svg>
