<svg width="24" height="26" viewBox="0 0 24 26" fill="none" xmlns="http://www.w3.org/2000/svg">
<path d="M12.8 25.8413H11.2C10.3838 25.8396 9.60156 25.5146 9.02443 24.9375C8.4473 24.3604 8.12233 23.5781 8.12065 22.7619C8.11924 22.4645 8.03812 22.1729 7.88573 21.9175C7.76903 21.7115 7.61277 21.5306 7.42594 21.3852C7.23911 21.2398 7.02539 21.1327 6.79705 21.0702C6.56872 21.0077 6.33028 20.9909 6.09543 21.0208C5.86059 21.0507 5.63396 21.1267 5.42859 21.2444C5.0738 21.4446 4.68289 21.5725 4.27843 21.6207C3.87397 21.669 3.46394 21.6368 3.07201 21.5258C2.68008 21.4148 2.314 21.2274 1.99488 20.9742C1.67577 20.721 1.40993 20.4072 1.21271 20.0508L0.412714 18.673C0.0116338 17.9682 -0.0932863 17.133 0.120999 16.3508C0.335284 15.5687 0.851251 14.9036 1.55557 14.5016C1.82937 14.3413 2.05658 14.1123 2.21471 13.8372C2.37284 13.5622 2.45641 13.2506 2.45716 12.9333C2.45578 12.6162 2.37194 12.3049 2.21387 12.0299C2.05581 11.755 1.82895 11.5259 1.55557 11.3651C1.2028 11.1642 0.893235 10.8955 0.644679 10.5746C0.396123 10.2536 0.213484 9.88666 0.107269 9.49485C0.00105446 9.10304 -0.0266394 8.69409 0.0257807 8.29153C0.0782008 7.88897 0.2097 7.50075 0.412714 7.14921L1.26986 5.71429C1.67961 5.01277 2.35049 4.50207 3.13577 4.29385C3.92105 4.08563 4.75683 4.19685 5.46033 4.60317C5.72941 4.76391 6.03585 4.85146 6.34922 4.85714C6.82317 4.8539 7.27707 4.66548 7.61398 4.33213C7.95089 3.99877 8.14412 3.5469 8.1524 3.07302C8.15237 2.26238 8.47264 1.48457 9.04346 0.908996C9.61429 0.333418 10.3894 0.00669945 11.2 0L12.908 0C13.7214 0.0298046 14.49 0.380495 15.0456 0.975392C15.6013 1.57029 15.8988 2.36099 15.873 3.1746C15.8763 3.46665 15.9598 3.75217 16.1143 4C16.2342 4.20365 16.393 4.38165 16.5818 4.52381C16.7706 4.66598 16.9855 4.76951 17.2143 4.82849C17.4432 4.88747 17.6814 4.90073 17.9153 4.86751C18.1493 4.8343 18.3744 4.75526 18.5778 4.63492C19.2836 4.22682 20.1225 4.11527 20.9104 4.32475C21.6983 4.53423 22.371 5.04764 22.781 5.75238L23.581 7.13651C23.5942 7.1607 23.6049 7.18624 23.6127 7.2127C23.9913 7.9161 24.0818 8.73912 23.865 9.50797C23.6482 10.2768 23.1411 10.9313 22.4508 11.3333C22.1885 11.4874 21.9699 11.7059 21.8159 11.9683C21.6946 12.1719 21.6147 12.3975 21.581 12.6321C21.5472 12.8668 21.5602 13.1058 21.6192 13.3353C21.6783 13.5649 21.7821 13.7805 21.9248 13.9698C22.0676 14.1591 22.2463 14.3182 22.4508 14.4381C22.8009 14.64 23.1078 14.9089 23.3538 15.2295C23.5998 15.5501 23.7802 15.9161 23.8846 16.3066C23.989 16.697 24.0154 17.1042 23.9622 17.5048C23.909 17.9054 23.7773 18.2916 23.5746 18.6413L22.7302 20.0571C22.3191 20.7589 21.6476 21.27 20.8616 21.4792C20.0757 21.6885 19.239 21.579 18.5333 21.1746C18.2591 21.0152 17.9471 20.9324 17.6299 20.9347C17.3127 20.9371 17.002 21.0246 16.7301 21.1881C16.4583 21.3516 16.2354 21.585 16.0846 21.8641C15.9338 22.1432 15.8608 22.4576 15.873 22.7746C15.868 23.5875 15.5424 24.3656 14.967 24.9398C14.3916 25.514 13.6129 25.8379 12.8 25.8413ZM6.34922 19.7333C6.88365 19.7336 7.40868 19.8739 7.87207 20.1401C8.33546 20.4063 8.72106 20.7893 8.99049 21.2508C9.26353 21.7057 9.41037 22.2251 9.41589 22.7556C9.41589 23.2361 9.60633 23.697 9.9455 24.0373C10.2847 24.3777 10.7449 24.5697 11.2254 24.5714H12.8254C13.2971 24.5616 13.7464 24.3685 14.0783 24.0331C14.4101 23.6977 14.5983 23.2464 14.6032 22.7746C14.5982 22.3709 14.6732 21.9702 14.824 21.5957C14.9749 21.2212 15.1984 20.8803 15.4819 20.5927C15.7653 20.3052 16.1029 20.0767 16.4752 19.9204C16.8475 19.7642 17.2471 19.6833 17.6508 19.6825C18.1848 19.6877 18.7089 19.8274 19.1746 20.0889C19.5871 20.3288 20.0775 20.3968 20.5397 20.2779C21.002 20.1591 21.3988 19.8631 21.6445 19.454L22.4889 18.0381C22.7276 17.6294 22.7948 17.1429 22.6759 16.6849C22.5569 16.2268 22.2614 15.8345 21.854 15.5937C21.3828 15.3251 20.9911 14.9367 20.7186 14.4677C20.4461 13.9988 20.3026 13.4661 20.3026 12.9238C20.3026 12.3815 20.4461 11.8488 20.7186 11.3799C20.9911 10.911 21.3828 10.5225 21.854 10.254C22.2597 10.0084 22.5533 9.61389 22.6719 9.15473C22.7906 8.69556 22.7249 8.20819 22.4889 7.79683C22.4866 7.77572 22.4866 7.75444 22.4889 7.73333L21.727 6.40635C21.4813 5.9972 21.0845 5.7012 20.6223 5.58238C20.1601 5.46356 19.6697 5.53148 19.2572 5.77143C18.5589 6.18185 17.7263 6.2987 16.9421 6.09637C16.1578 5.89405 15.4857 5.38906 15.073 4.69206C14.7792 4.23937 14.6166 3.71412 14.6032 3.1746C14.6127 2.93313 14.5744 2.69215 14.4905 2.46552C14.4066 2.23889 14.2787 2.03106 14.1143 1.85397C13.9511 1.6793 13.7548 1.53883 13.5368 1.44073C13.3188 1.34263 13.0834 1.28886 12.8445 1.28254H11.2C10.7246 1.28254 10.2685 1.47097 9.93171 1.80657C9.59492 2.14217 9.40487 2.59757 9.40319 3.07302C9.3917 3.8794 9.06626 4.64954 8.496 5.21979C7.92574 5.79005 7.15561 6.1155 6.34922 6.12698C5.81357 6.12777 5.28745 5.98529 4.82541 5.71429C4.41405 5.47829 3.92668 5.4126 3.46751 5.53125C3.00834 5.64989 2.61381 5.94347 2.36827 6.34921L1.50478 7.79683C1.27066 8.21143 1.21002 8.70181 1.33611 9.16095C1.4622 9.62009 1.76477 10.0107 2.17779 10.2476C2.64487 10.5188 3.0326 10.9078 3.30224 11.3757C3.57187 11.8437 3.71396 12.3742 3.7143 12.9143C3.71395 13.4551 3.57118 13.9863 3.30033 14.4544C3.02949 14.9226 2.64014 15.3111 2.17144 15.581C1.76089 15.8194 1.46004 16.2091 1.33335 16.6667C1.27039 16.8946 1.25368 17.1327 1.28421 17.3672C1.31474 17.6016 1.3919 17.8276 1.51113 18.0317L2.31748 19.4286C2.43057 19.6424 2.58554 19.8313 2.77316 19.984C2.96077 20.1367 3.17719 20.2501 3.40954 20.3175C3.871 20.4495 4.36585 20.3947 4.78732 20.1651C5.25894 19.8817 5.79899 19.7324 6.34922 19.7333Z" fill="#636060"/>
<g opacity="0.4">
<path opacity="0.7" d="M12.0064 16.9206C11.2137 16.9219 10.4385 16.688 9.77882 16.2485C9.11914 15.8091 8.60465 15.1838 8.30045 14.4519C7.99624 13.7199 7.91599 12.9142 8.06986 12.1366C8.22373 11.359 8.6048 10.6446 9.16484 10.0836C9.72489 9.52269 10.4387 9.14049 11.2161 8.98539C11.9934 8.83029 12.7993 8.90926 13.5317 9.2123C14.2641 9.51535 14.8902 10.0288 15.3307 10.6878C15.7712 11.3468 16.0064 12.1216 16.0064 12.9143C16.0047 13.9752 15.5829 14.9923 14.8333 15.7431C14.0837 16.4939 13.0673 16.9173 12.0064 16.9206ZM12.0064 10.1841C11.4646 10.1829 10.9346 10.3425 10.4836 10.6427C10.0327 10.9429 9.68093 11.3702 9.47302 11.8705C9.26512 12.3708 9.21039 12.9215 9.31578 13.4529C9.42116 13.9844 9.68192 14.4725 10.065 14.8556C10.4481 15.2387 10.9363 15.4995 11.4677 15.6049C11.9991 15.7103 12.5499 15.6555 13.0502 15.4476C13.5504 15.2397 13.9778 14.888 14.278 14.437C14.5782 13.986 14.7378 13.4561 14.7365 12.9143C14.739 12.5539 14.6703 12.1965 14.5343 11.8627C14.3983 11.5289 14.1977 11.2253 13.944 10.9692C13.6903 10.7132 13.3886 10.5098 13.056 10.3707C12.7235 10.2316 12.3668 10.1596 12.0064 10.1587V10.1841Z" fill="#636060"/>
</g>
</svg>
