<svg width="24" height="21" viewBox="0 0 24 21" fill="none" xmlns="http://www.w3.org/2000/svg">
<path d="M23.7253 5.38162C23.6806 5.42636 23.5208 5.61811 23.3674 5.7715C22.0824 7.01429 20.6036 8.03968 18.9892 8.80746C18.7055 8.93114 18.4069 9.01709 18.1008 9.06312C17.865 9.06263 17.6326 9.00565 17.4233 8.89694C17.1553 8.74169 16.9446 8.50408 16.8225 8.21944C16.7384 7.95313 16.6701 7.68208 16.618 7.40772C16.4795 6.45763 16.4175 5.49796 16.4326 4.53795C16.4336 3.60601 16.4955 2.67513 16.618 1.75127C16.6776 1.41076 16.763 1.0753 16.8737 0.747803C16.9851 0.526882 17.1547 0.340524 17.3642 0.208766C17.5736 0.0770082 17.8151 0.00483286 18.0625 0L18.1072 0C18.4518 0.0573619 18.7871 0.16054 19.1043 0.306791C20.6786 1.07441 22.1218 2.0861 23.3802 3.30439C23.5134 3.4321 23.6353 3.5711 23.7445 3.71984C23.9159 3.95291 24.0057 4.23593 24.0001 4.52517C24.0072 4.8334 23.9104 5.13505 23.7253 5.38162Z" fill="#636060"/>
<g opacity="0.4">
<path opacity="0.7" d="M13.9526 5.17071L0 4.53156L13.9526 3.89242C14.0365 3.88864 14.1204 3.90143 14.1994 3.93006C14.2784 3.95869 14.3509 4.0026 14.413 4.05928C14.475 4.11596 14.5252 4.1843 14.5608 4.2604C14.5965 4.3365 14.6167 4.41887 14.6205 4.5028C14.6243 4.58674 14.6115 4.67059 14.5829 4.74958C14.5542 4.82857 14.5103 4.90115 14.4536 4.96317C14.397 5.02519 14.3286 5.07544 14.2525 5.11105C14.1764 5.14666 14.0941 5.16693 14.0101 5.17071H13.9526Z" fill="#636060"/>
</g>
<path d="M0.281174 16.8032C0.319523 16.8479 0.485701 17.0333 0.632705 17.1867C1.91606 18.4315 3.39513 19.4572 5.01087 20.2226C5.29351 20.3492 5.59259 20.4353 5.89928 20.4783C6.13515 20.4778 6.36746 20.4208 6.57678 20.3121C6.84597 20.1583 7.05709 19.9203 7.17758 19.6346C7.25428 19.3662 7.31819 19.0977 7.36932 18.8293C7.50548 17.8769 7.56533 16.9151 7.54829 15.9531C7.55897 15.0217 7.50558 14.0906 7.3885 13.1665C7.33121 12.8255 7.24569 12.4898 7.13284 12.163C7.02307 11.9407 6.85388 11.7532 6.64405 11.6212C6.43421 11.4892 6.19191 11.4179 5.94402 11.4152H5.89928C5.55354 11.4709 5.21769 11.5764 4.90221 11.7284C3.3317 12.4852 1.89245 13.4886 0.639097 14.7004C0.511267 14.8325 0.389829 14.9731 0.274783 15.1222C0.0972825 15.3581 0.000869983 15.6451 -5.10135e-05 15.9404C-0.00522699 16.2513 0.0937682 16.555 0.281174 16.8032Z" fill="#636060"/>
<path d="M10.0475 15.3396L24.0001 15.9787L10.0475 16.6178C9.87795 16.6255 9.71235 16.5655 9.58709 16.451C9.46184 16.3365 9.38718 16.177 9.37955 16.0075C9.37193 15.838 9.43195 15.6724 9.54642 15.5471C9.66089 15.4218 9.82043 15.3472 9.98994 15.3396H10.0475Z" fill="#636060"/>
</svg>
