<svg width="24" height="23" viewBox="0 0 24 23" fill="none" xmlns="http://www.w3.org/2000/svg">
<g clip-path="url(#clip0_63_1117)">
<path d="M21.2375 22.2874H2.72141C1.99965 22.2874 1.30744 22.0007 0.797082 21.4903C0.286719 20.9799 0 20.2877 0 19.566L0 2.72141C0 1.99965 0.286719 1.30744 0.797082 0.797082C1.30744 0.286719 1.99965 0 2.72141 0L21.2375 0C21.9588 0.00154949 22.6501 0.288766 23.1602 0.798793C23.6702 1.30882 23.9574 2.00012 23.9589 2.72141V10.6979C23.9589 10.8535 23.8972 11.0027 23.7872 11.1127C23.6772 11.2227 23.528 11.2845 23.3724 11.2845C23.2169 11.2845 23.0677 11.2227 22.9577 11.1127C22.8477 11.0027 22.7859 10.8535 22.7859 10.6979V2.72141C22.7859 2.31075 22.6228 1.91691 22.3324 1.62653C22.042 1.33615 21.6482 1.17302 21.2375 1.17302H2.72141C2.31075 1.17302 1.91691 1.33615 1.62653 1.62653C1.33615 1.91691 1.17302 2.31075 1.17302 2.72141V19.566C1.17302 19.9766 1.33615 20.3705 1.62653 20.6609C1.91691 20.9512 2.31075 21.1144 2.72141 21.1144H21.2375C21.6482 21.1144 22.042 20.9512 22.3324 20.6609C22.6228 20.3705 22.7859 19.9766 22.7859 19.566C22.7859 19.4104 22.8477 19.2612 22.9577 19.1513C23.0677 19.0413 23.2169 18.9795 23.3724 18.9795C23.528 18.9795 23.6772 19.0413 23.7872 19.1513C23.8972 19.2612 23.9589 19.4104 23.9589 19.566C23.9574 20.2873 23.6702 20.9786 23.1602 21.4886C22.6501 21.9986 21.9588 22.2858 21.2375 22.2874Z" fill="#636060"/>
<path d="M11.3547 2.65689L21.0673 2.07038C21.1453 2.06399 21.2238 2.07328 21.2982 2.09769C21.3725 2.1221 21.4412 2.16115 21.5003 2.21252C21.5593 2.2639 21.6074 2.32657 21.6419 2.39684C21.6763 2.46711 21.6963 2.54357 21.7008 2.6217C21.7056 2.70163 21.694 2.78169 21.6667 2.85697C21.6393 2.93224 21.5969 3.00112 21.5419 3.05936C21.487 3.11761 21.4207 3.16399 21.3471 3.19564C21.2736 3.22729 21.1943 3.24354 21.1143 3.2434H21.0439L11.3547 2.65689Z" fill="#636060"/>
<path d="M23.3724 8.61582C23.2169 8.61582 23.0677 8.55403 22.9577 8.44404C22.8477 8.33405 22.7859 8.18486 22.7859 8.02931V7.62462C22.7844 7.10143 22.5754 6.60019 22.2049 6.23079C21.8344 5.86138 21.3326 5.65394 20.8094 5.65395H3.07918C2.67433 5.65395 2.27344 5.57411 1.89948 5.419C1.52551 5.26389 1.1858 5.03655 0.8998 4.75C0.613795 4.46345 0.387107 4.12331 0.232709 3.74905C0.0783107 3.37479 -0.000765571 2.97376 5.58632e-06 2.5689C5.58632e-06 2.41335 0.0617985 2.26417 0.17179 2.15418C0.281782 2.04418 0.430964 1.98239 0.586516 1.98239C0.742068 1.98239 0.891249 2.04418 1.00124 2.15418C1.11123 2.26417 1.17303 2.41335 1.17303 2.5689C1.17457 3.07397 1.3759 3.55791 1.73304 3.91505C2.09017 4.27219 2.57412 4.47351 3.07918 4.47506H20.8094C21.6442 4.47661 22.4444 4.80894 23.0347 5.39926C23.6251 5.98958 23.9574 6.78978 23.9589 7.62462V8.03518C23.9574 8.18971 23.8949 8.33739 23.7851 8.44612C23.6753 8.55484 23.527 8.61583 23.3724 8.61582Z" fill="#636060"/>
<g opacity="0.4">
<path opacity="0.7" d="M23.9999 15.4076C23.9943 15.3285 23.9727 15.2513 23.9364 15.1807C23.9001 15.1101 23.8499 15.0477 23.7888 14.9971L22.4163 12.6217C22.3778 12.5547 22.3265 12.4959 22.2653 12.4488C22.204 12.4016 22.1341 12.3669 22.0595 12.3468C21.9088 12.3061 21.7481 12.3269 21.6128 12.4047C21.4775 12.4825 21.3786 12.6108 21.3379 12.7615C21.2972 12.9122 21.318 13.0729 21.3958 13.2082L22.3929 14.9326L15.1084 15.4487L22.2873 15.959L21.3841 17.2493C21.3393 17.3127 21.3077 17.3843 21.2908 17.46C21.274 17.5358 21.2723 17.6141 21.286 17.6904C21.2996 17.7668 21.3283 17.8397 21.3703 17.9049C21.4123 17.9702 21.4668 18.0264 21.5307 18.0704C21.6288 18.1388 21.7454 18.1757 21.865 18.176C21.9596 18.1758 22.0527 18.1528 22.1364 18.1089C22.2202 18.065 22.292 18.0015 22.3459 17.9238L23.7594 15.9003C23.8366 15.844 23.8989 15.7697 23.9408 15.6838C23.9827 15.5979 24.003 15.5031 23.9999 15.4076Z" fill="#636060"/>
</g>
</g>
<defs>
<clipPath id="clip0_63_1117">
<rect width="24" height="22.2874" fill="white"/>
</clipPath>
</defs>
</svg>
