<svg width="19" height="20" viewBox="0 0 19 20" fill="none" xmlns="http://www.w3.org/2000/svg">
<path fill-rule="evenodd" clip-rule="evenodd" d="M16.3846 6.72C16.7976 6.754 17.1056 7.115 17.0726 7.528C17.0666 7.596 16.5246 14.307 16.2126 17.122C16.0186 18.869 14.8646 19.932 13.1226 19.964C11.7896 19.987 10.5036 20 9.2466 20C7.8916 20 6.5706 19.985 5.2636 19.958C3.5916 19.925 2.4346 18.841 2.2456 17.129C1.9306 14.289 1.3916 7.595 1.3866 7.528C1.3526 7.115 1.6606 6.753 2.0736 6.72C2.4806 6.709 2.8486 6.995 2.8816 7.407C2.88479 7.45041 3.10514 10.184 3.34526 12.8887L3.39349 13.4285C3.51443 14.7728 3.63703 16.0646 3.7366 16.964C3.8436 17.937 4.3686 18.439 5.2946 18.458C7.7946 18.511 10.3456 18.514 13.0956 18.464C14.0796 18.445 14.6116 17.953 14.7216 16.957C15.0316 14.163 15.5716 7.475 15.5776 7.407C15.6106 6.995 15.9756 6.707 16.3846 6.72ZM11.3454 0.000301361C12.2634 0.000301361 13.0704 0.619301 13.3074 1.5063L13.5614 2.7673C13.6435 3.18068 14.0062 3.48256 14.4263 3.48919L17.708 3.4893C18.122 3.4893 18.458 3.8253 18.458 4.2393C18.458 4.6533 18.122 4.9893 17.708 4.9893L14.4556 4.98915C14.4505 4.98925 14.4455 4.9893 14.4404 4.9893L14.416 4.9883L4.04162 4.98918C4.03355 4.98926 4.02548 4.9893 4.0174 4.9893L4.002 4.9883L0.75 4.9893C0.336 4.9893 0 4.6533 0 4.2393C0 3.8253 0.336 3.4893 0.75 3.4893L4.031 3.4883L4.13202 3.48191C4.50831 3.43309 4.82104 3.1473 4.8974 2.7673L5.1404 1.5513C5.3874 0.619301 6.1944 0.000301361 7.1124 0.000301361H11.3454ZM11.3454 1.5003H7.1124C6.8724 1.5003 6.6614 1.6613 6.6004 1.8923L6.3674 3.0623C6.33779 3.2105 6.29467 3.35332 6.23948 3.48957H12.2186C12.1634 3.35332 12.1201 3.2105 12.0904 3.0623L11.8474 1.8463C11.7964 1.6613 11.5854 1.5003 11.3454 1.5003Z" fill="#104141"/>
</svg>
