<svg width="21" height="20" viewBox="0 0 21 20" fill="none" xmlns="http://www.w3.org/2000/svg">
<path fill-rule="evenodd" clip-rule="evenodd" d="M10.2345 1.03901C11.8605 0.0110114 14.0205 -0.272989 15.8865 0.325011C19.9455 1.63401 21.2055 6.05901 20.0785 9.58001C18.3395 15.11 10.9125 19.235 10.5975 19.408C10.4855 19.47 10.3615 19.501 10.2375 19.501C10.1135 19.501 9.99047 19.471 9.87847 19.41C9.56547 19.239 2.19247 15.175 0.395468 9.58101C0.394468 9.58101 0.394468 9.58001 0.394468 9.58001C-0.733532 6.05801 0.522469 1.63201 4.57747 0.325011C6.48147 -0.290989 8.55647 -0.0199887 10.2345 1.03901ZM5.03747 1.75301C1.75647 2.81101 0.932468 6.34001 1.82347 9.12301C3.22547 13.485 8.76447 17.012 10.2365 17.885C11.7135 17.003 17.2925 13.437 18.6495 9.12701C19.5405 6.34101 18.7135 2.81201 15.4275 1.75301C13.8355 1.24201 11.9785 1.55301 10.6965 2.54501C10.4285 2.75101 10.0565 2.75501 9.78647 2.55101C8.42847 1.53001 6.65447 1.23101 5.03747 1.75301ZM14.4675 3.73891C15.8305 4.17991 16.7855 5.38691 16.9025 6.81391C16.9355 7.22691 16.6285 7.58891 16.2155 7.62191C16.1945 7.62391 16.1745 7.62491 16.1535 7.62491C15.7665 7.62491 15.4385 7.32791 15.4065 6.93591C15.3405 6.11391 14.7905 5.41991 14.0075 5.16691C13.6125 5.03891 13.3965 4.61591 13.5235 4.22291C13.6525 3.82891 14.0715 3.61491 14.4675 3.73891Z" fill="#D55015"/>
</svg>
